<?xml version="1.0" encoding="utf-8"?>
<svg xmlns="http://www.w3.org/2000/svg" version="1.1" viewBox="0 0 99.999984 26.182349">
	<title>An illustration of haphazardly-scattered shards.</title>
	<path d="m 74.280474,25.898495 c -0.29897,-0.15564 -0.57379,-0.28397 -0.61071,-0.28519 -0.0369,-0.001 -0.14363,0.0621 -0.23713,0.14082 -0.18805,0.15823 -0.36336,0.18352 -0.46054,0.0664 -0.0865,-0.10427 -0.14896,-0.51112 -0.1408,-0.91775 0.006,-0.30135 0.0267,-0.35621 0.1987,-0.52696 0.18664,-0.18532 0.20082,-0.18937 0.51291,-0.14635 0.33888,0.0467 0.27703,0.005 1.31345,0.89524 0.18309,0.15735 0.41165,0.34599 0.50791,0.41919 0.10338,0.0786 0.17401,0.184 0.17258,0.25748 -0.003,0.15237 -0.34052,0.38225 -0.55942,0.38097 -0.0844,-5.2e-4 -0.39799,-0.12824 -0.69695,-0.28387 z m -32.72973,-1.57433 c -0.1107,-0.041 -0.47117,-0.13095 -0.80105,-0.19977 -0.5014,-0.1046 -0.6303,-0.15433 -0.78575,-0.30315 -0.27435,-0.26264 -0.22725,-0.62219 0.12483,-0.95296 0.1231,-0.11564 0.17876,-0.12853 0.41631,-0.0964 0.69859,0.0945 1.34204,0.38085 1.6413,0.73047 0.24108,0.28164 0.24823,0.34339 0.0753,0.64968 -0.14612,0.25882 -0.3182,0.30297 -0.67095,0.17214 z m 40.44924,-1.00883 c -0.20185,-0.16122 -0.39843,-0.35134 -0.43687,-0.4225 -0.0913,-0.16908 -0.48457,-0.37153 -0.72171,-0.37153 -0.47875,0 -1.02041,-1.17775 -0.84865,-1.84526 0.11398,-0.44299 0.0145,-3.0943 -0.13391,-3.56963 -0.0279,-0.0894 -0.10209,-0.13238 -0.27637,-0.16008 -0.13101,-0.0208 -0.29226,-0.0513 -0.35833,-0.0678 -0.12709,-0.0317 -0.22761,0.13446 -0.26344,0.43533 -0.0365,0.30632 -0.4461,0.14004 -0.4461,-0.18109 0,-0.18131 0.51918,-1.23557 0.73877,-1.50016 0.14318,-0.17252 0.82185,-0.0824 1.2616,0.16747 0.1089,0.0619 0.32069,0.22838 0.47064,0.37 0.26664,0.25181 0.27389,0.26782 0.32932,0.72681 0.0321,0.26573 0.0437,1.12975 0.0267,1.9917 l -0.03,1.52237 0.18928,0.29755 c 0.30182,0.47447 0.3263,0.51606 0.41028,0.69702 0.0438,0.0944 0.22659,0.33258 0.40618,0.52927 0.31668,0.34682 0.3351,0.35761 0.61066,0.35761 0.15627,0 0.36164,-0.0401 0.45638,-0.0891 0.0947,-0.049 0.26726,-0.0812 0.38338,-0.0715 l 0.21113,0.0176 0.0767,0.39335 c 0.0962,0.4939 0.0522,0.54998 -0.5055,0.64395 -0.29468,0.0497 -0.45715,0.11345 -0.62257,0.24447 -0.32352,0.25623 -0.48733,0.23577 -0.92753,-0.11583 z m -34.97457,-0.13337 c -0.11808,-0.0801 -0.22913,-0.14569 -0.24677,-0.14569 -0.0176,0 -0.14653,-0.0773 -0.28642,-0.17166 -0.13988,-0.0944 -0.27839,-0.17165 -0.30778,-0.17165 -0.12041,0 -0.77973,-0.35708 -0.90154,-0.48826 -0.0721,-0.0776 -0.1589,-0.14114 -0.19294,-0.14114 -0.0693,0 -0.0303,-1.31459 0.0696,-2.34594 0.0868,-0.89559 0.13568,-3.25995 0.0688,-3.32684 -0.0308,-0.0308 -0.25911,-0.0703 -0.50738,-0.0878 -0.57947,-0.0409 -0.88462,-0.18341 -1.17245,-0.54755 -0.28854,-0.36502 -0.30442,-0.6303 -0.0522,-0.87193 0.15318,-0.14675 0.2085,-0.16311 0.53486,-0.15816 0.20187,0.003 0.46346,0.0483 0.58729,0.10161 0.48312,0.2079 0.8847,0.26082 1.92606,0.25378 1.27861,-0.009 1.35839,0.0171 1.35839,0.43835 0,0.16523 -0.0313,0.31965 -0.0715,0.35299 -0.0393,0.0326 -0.26463,0.0739 -0.50066,0.0917 -1.47182,0.1113 -1.40756,0.0693 -1.31911,0.86254 0.076,0.68109 0.0194,4.7146 -0.0676,4.82244 -0.0447,0.0554 0.007,0.0715 0.22957,0.0715 0.20499,0 0.37583,0.0466 0.59636,0.16258 0.16999,0.0894 0.37811,0.17991 0.4625,0.20109 0.22227,0.0558 0.55607,0.36814 0.55607,0.52035 0,0.11297 -0.081,0.33139 -0.22397,0.60365 -0.0742,0.14142 -0.30914,0.13011 -0.53913,-0.026 z m 6.18925,-0.3737 c -0.51766,-0.0873 -0.66002,-0.13585 -0.93742,-0.31999 -0.3756,-0.2493 -1.62783,-1.43248 -1.62783,-1.53806 0,-0.0388 -0.0515,-0.1171 -0.11444,-0.17406 -0.0629,-0.057 -0.11443,-0.12403 -0.11443,-0.14904 0,-0.025 -0.0735,-0.1562 -0.16324,-0.29153 -0.22017,-0.33185 -0.30698,-0.59484 -0.21878,-0.66278 0.25034,-0.19283 0.56877,-0.0734 1.11199,0.41718 0.18071,0.16319 0.43155,0.32931 0.55743,0.36916 0.13226,0.0419 0.36172,0.20001 0.54357,0.37464 0.35448,0.34039 0.56372,0.4602 1.0041,0.5749 0.30149,0.0785 0.58644,0.0412 0.73819,-0.0968 0.0965,-0.0877 0.35528,-0.0526 0.51011,0.0692 0.14108,0.11098 0.15076,0.14888 0.15076,0.59009 0,0.44147 -0.01,0.48062 -0.15735,0.61482 -0.22535,0.20527 -0.45204,0.33667 -0.57017,0.33049 -0.0562,-0.003 -0.3768,-0.0516 -0.71249,-0.10823 z m 20.05019,-0.17335 c -0.20492,-0.0839 -0.15084,-0.21492 0.15202,-0.36839 l 0.28077,-0.14228 -0.0256,-0.81709 c -0.0141,-0.4494 -0.05,-0.9587 -0.0799,-1.13179 -0.0299,-0.17308 -0.0942,-0.58505 -0.14295,-0.91549 -0.0488,-0.33043 -0.12431,-0.7424 -0.16791,-0.91549 -0.13544,-0.53765 -0.20243,-0.91549 -0.20243,-1.14172 0,-0.27907 -0.0915,-0.35015 -0.42746,-0.33201 -0.20451,0.011 -0.28747,-0.009 -0.33509,-0.0829 -0.0894,-0.13779 0.14277,-0.3726 0.44412,-0.44919 0.12793,-0.0325 0.38223,-0.1245 0.56511,-0.2044 0.34907,-0.15253 0.49715,-0.14775 0.49715,0.016 0,0.087 0.15693,0.592 0.28177,0.90679 0.0249,0.0629 0.16878,0.50066 0.31962,0.97271 0.15083,0.47204 0.28999,0.87664 0.30924,0.89909 0.0615,0.0717 0.66983,0.11811 1.00292,0.0765 0.29827,-0.0373 0.33339,-0.0579 0.4758,-0.27905 0.20216,-0.31399 0.29798,-0.58925 0.29904,-0.85906 6.8e-4,-0.17313 -0.0355,-0.25167 -0.17079,-0.37035 -0.0944,-0.0828 -0.17166,-0.17815 -0.17166,-0.2118 0,-0.0725 -0.43119,-0.48363 -0.61431,-0.58579 -0.19199,-0.1071 -0.34956,-0.0867 -0.48986,0.0634 -0.0693,0.0742 -0.2097,0.17782 -0.31197,0.23034 -0.10228,0.0525 -0.18596,0.12059 -0.18596,0.15126 0,0.0307 -0.0772,0.0557 -0.17166,0.0557 -0.15228,0 -0.17165,-0.0192 -0.17165,-0.17033 0,-0.12349 0.0433,-0.19778 0.15735,-0.27011 0.0865,-0.0549 0.27321,-0.19437 0.41483,-0.30997 0.35845,-0.29262 0.81379,-0.50838 1.07287,-0.50838 0.41781,0 1.21269,0.6469 1.50234,1.22266 0.0971,0.19296 0.24388,0.47957 0.32624,0.63692 0.0824,0.15735 0.1713,0.3308 0.19764,0.38545 0.20295,0.42095 -0.26376,0.99272 -1.25059,1.5321 -0.25413,0.1389 -0.30808,0.13965 -1.51315,0.0212 -0.57118,-0.0561 -0.57861,-0.0376 -0.57059,1.42246 0.003,0.63744 0.0128,1.23623 0.0207,1.33064 l 0.0143,0.17166 -0.60079,0.0116 c -0.33044,0.006 -0.65873,-0.0121 -0.72953,-0.0411 z m 12.21605,-0.11819 c -0.0705,-0.041 -0.10013,-0.13024 -0.10013,-0.30105 0,-0.21209 0.0325,-0.27461 0.25748,-0.49542 0.14162,-0.13898 0.25748,-0.27953 0.25748,-0.31233 0,-0.11189 0.43758,-0.5387 0.59203,-0.57746 0.18237,-0.0458 0.4773,0.063 0.55265,0.20377 0.0906,0.16938 0.16834,0.59928 0.13284,0.73505 -0.0251,0.0959 -0.2088,0.21702 -0.712,0.46928 -0.69418,0.34797 -0.80601,0.3797 -0.98035,0.27816 z m -16.87383,-0.83938 c -0.11203,-0.11802 -0.21771,-0.25511 -0.23484,-0.30467 -0.036,-0.10397 -0.79446,-0.51069 -0.95242,-0.51069 -0.0583,0 -0.20196,-0.0401 -0.31928,-0.0891 -0.11732,-0.049 -0.26852,-0.0848 -0.33599,-0.0795 -0.2553,0.02 -0.31498,-0.009 -0.43282,-0.20841 -0.1434,-0.24305 -0.31993,-0.89 -0.37106,-1.35993 -0.0317,-0.29148 -0.0164,-0.37621 0.11794,-0.65071 0.17108,-0.34968 0.4039,-0.5299 0.68499,-0.53024 0.29624,-3.4e-4 0.31872,0.0765 0.29805,1.01844 -0.0199,0.90634 0.0126,1.0412 0.25123,1.0412 0.0624,0 0.2279,0.0772 0.36778,0.17165 0.13989,0.0944 0.30303,0.17166 0.36254,0.17166 0.0595,0 0.1241,0.0258 0.14355,0.0572 0.0195,0.0315 0.0938,0.0572 0.16521,0.0572 0.10911,0 0.14054,-0.0463 0.19689,-0.29045 0.0369,-0.15975 0.067,-0.34679 0.067,-0.41564 0,-0.0688 0.0515,-0.26607 0.11443,-0.43827 0.18896,-0.51694 0.16098,-0.62977 -0.27965,-1.12817 -0.44984,-0.50879 -0.63583,-0.74312 -0.63583,-0.80103 0,-0.0306 -0.0515,-0.1023 -0.11444,-0.15926 -0.0629,-0.057 -0.11444,-0.12636 -0.11444,-0.15423 0,-0.0279 -0.0481,-0.12043 -0.10682,-0.2057 -0.32341,-0.46936 -0.46536,-0.73432 -0.46536,-0.86862 0,-0.0827 -0.0259,-0.17629 -0.0575,-0.20794 -0.0654,-0.0654 0.0362,-0.68868 0.13233,-0.81178 0.0318,-0.0407 0.20172,-0.13986 0.3777,-0.22037 0.57158,-0.2615 1.01422,-0.10521 1.14228,0.40333 0.0336,0.13344 0.17951,0.41922 0.32425,0.63506 0.32971,0.49169 0.54136,0.86872 0.54136,0.9644 0,0.0405 0.0729,0.22627 0.16211,0.4128 0.2615,0.54708 0.31287,0.81465 0.27607,1.43815 -0.0413,0.70037 -0.10466,1.04642 -0.26484,1.4472 -0.1903,0.47614 -0.1902,0.47414 -0.0343,0.70394 0.40001,0.58944 0.41101,0.75122 0.066,0.96968 -0.19223,0.12171 -0.31873,0.15735 -0.55849,0.15735 -0.28383,0 -0.32714,-0.0181 -0.51365,-0.21456 z m 13.63974,-0.4743 c -0.0715,-0.0287 -0.14554,-0.0927 -0.16452,-0.14218 -0.0451,-0.11744 0.19059,-0.44565 0.44105,-0.61425 0.10823,-0.0729 0.22919,-0.19984 0.2688,-0.28219 0.0396,-0.0823 0.1628,-0.22943 0.27378,-0.32686 0.26857,-0.23582 0.62046,-0.24742 0.88001,-0.029 0.29955,0.25206 0.2336,0.38946 -0.36109,0.75236 -0.0909,0.0555 -0.33548,0.23568 -0.54357,0.4005 -0.38209,0.30263 -0.53035,0.34772 -0.79446,0.24165 z M 4.1311336,20.991335 c -0.26233,-0.17151 -0.46653,-0.38392 -0.6744,-0.70153 -0.11328,-0.17309 -0.29755,-0.42244 -0.40949,-0.55411 -0.29904,-0.35178 -0.461,-0.57313 -0.461,-0.63006 0,-0.11675 -0.59898,-0.62682 -0.95714,-0.81506 l -0.38749,-0.20367 0.004,-0.3433 c 0.006,-0.46736 0.11332,-0.93793 0.31422,-1.37197 0.0924,-0.1997 0.16814,-0.38467 0.16823,-0.41105 1.2e-4,-0.0264 0.0867,-0.21966 0.19237,-0.42952 0.10571,-0.20986 0.21065,-0.44159 0.23321,-0.51496 0.0508,-0.16536 0.23504,-1.15312 0.35034,-1.87856 0.0475,-0.29896 0.1066,-0.63633 0.1313,-0.7497 0.0247,-0.11338 0.0222,-0.57335 -0.006,-1.02216 -0.0566,-0.91662 -0.0843,-0.84109 0.40989,-1.11765 0.11248,-0.0629 0.32771,-0.19786 0.47829,-0.29981 0.32699,-0.2214 0.52808,-0.28084 0.63889,-0.18888 0.0654,0.0543 0.0768,0.21708 0.0575,0.82175 -0.021,0.65898 -0.12353,2.25821 -0.15212,2.37257 -0.006,0.0225 0.0102,0.12698 0.035,0.23226 0.0428,0.18118 0.0564,0.18995 0.25408,0.1639 0.20085,-0.0265 0.58198,-0.14862 0.9613,-0.30812 0.0992,-0.0417 0.19714,-0.0758 0.21771,-0.0758 0.0206,0 0.14631,-0.0496 0.27943,-0.11026 0.13311,-0.0606 0.31837,-0.12672 0.41169,-0.14684 0.1534,-0.0331 0.39468,-0.12528 0.92538,-0.35362 0.10094,-0.0434 0.19776,-0.10199 0.21516,-0.13014 0.0174,-0.0281 0.15366,-0.0969 0.30282,-0.15289 0.37404,-0.14028 0.53356,-0.25848 1.14912,-0.8514 0.50144,-0.48301 1.16954,-1.37415 1.3727004,-1.83098 0.29034,-0.65284 0.6187,-1.2389 0.76139,-1.35893 0.1771,-0.14896 0.26349,-0.12348 0.3879,0.11444 0.0617,0.11801 0.19092,0.30468 0.28712,0.41483 0.18244,0.20887 0.20778,0.28372 0.1269,0.37478 -0.0266,0.0299 -0.11505,0.26034 -0.19665,0.5121 -0.1886,0.58181 -0.35933,0.96644 -0.46963,1.05798 -0.0476,0.0395 -0.0865,0.1041 -0.0865,0.1436 0,0.0395 -0.0391,0.10426 -0.0869,0.14392 -0.0478,0.0397 -0.12609,0.15472 -0.17401,0.2557 -0.0479,0.10098 -0.2148,0.32686 -0.37086,0.50195 -0.15606,0.17509 -0.28374,0.34608 -0.28374,0.37998 0,0.0339 -0.0965,0.12325 -0.2145704,0.19855 -0.11801,0.0753 -0.27893,0.20745 -0.35761,0.29366 -0.0787,0.0862 -0.23316,0.21838 -0.34331,0.29372 -0.11014,0.0754 -0.34187,0.23959 -0.51496,0.36498 -0.17308,0.12539 -0.35824,0.22803 -0.41145,0.22808 -0.0532,5e-5 -0.11307,0.0265 -0.133,0.0587 -0.0199,0.0323 -0.20813,0.14928 -0.41821,0.26007 -0.21008,0.11079 -0.44633,0.23605 -0.52501,0.27836 -0.0787,0.0423 -0.3619,0.17355 -0.6294,0.29165 -0.26749,0.1181 -0.64084,0.28457 -0.82966,0.36993 -0.32764,0.14812 -1.05396,0.34186 -1.65155,0.44054 -0.27721,0.0458 -0.27881,0.0473 -0.40436,0.38926 -0.0693,0.18882 -0.19285,0.44009 -0.27448,0.55837 -0.0931,0.13486 -0.17361,0.36439 -0.21597,0.61554 -0.0768,0.45556 -0.12166,0.36585 0.60095,1.20282 0.18882,0.2187 0.43794,0.50796 0.5536,0.6428 0.11566,0.13484 0.22762,0.31418 0.24879,0.39853 0.0565,0.22514 0.12182,0.25424 0.6476,0.28851 0.54455,0.0355 0.69952,0.13023 0.80019,0.48917 0.0324,0.11553 0.0996,0.32052 0.14937,0.45554 0.13987,0.37957 0.0802,0.50175 -0.30207,0.61851 -0.17805,0.0544 -0.35188,0.12021 -0.38629,0.14628 -0.0805,0.061 -0.93176,0.27603 -1.08179,0.27325 -0.0629,-0.001 -0.17881,-0.0442 -0.25749,-0.0956 z m 36.5412804,0.0219 c -0.0561,-0.044 -0.0904,-0.20651 -0.10433,-0.49461 -0.0123,-0.25426 -0.0609,-0.5085 -0.11933,-0.62388 -0.0542,-0.10712 -0.0986,-0.2556 -0.0986,-0.32996 0,-0.11042 -0.4338,-1.02217 -0.72686,-1.5277 -0.0563,-0.0971 -0.0516,-0.13779 0.0256,-0.22312 0.0736,-0.0814 0.16239,-0.10062 0.40267,-0.0874 0.16952,0.009 0.33671,0.0512 0.37152,0.0932 0.0348,0.0419 0.21932,0.15452 0.41002,0.25017 0.1907,0.0956 0.48037,0.29953 0.6437,0.45307 0.16333,0.15354 0.32426,0.27917 0.35761,0.27917 0.0966,0 0.0707,0.51998 -0.0414,0.83186 -0.10596,0.2947 -0.36341,0.73291 -0.46888,0.79809 -0.0333,0.0206 -0.12325,0.16106 -0.19979,0.31211 -0.14442,0.285 -0.30755,0.38214 -0.45189,0.26909 z m 50.00327,-0.0332 c -0.0231,-0.0373 -0.0974,-0.0927 -0.16515,-0.12305 -0.23434,-0.10491 -0.49414,-0.32683 -0.72594,-0.62008 -0.15679,-0.19835 -0.28848,-0.3056 -0.40351,-0.3286 -0.193,-0.0386 -0.28114,-0.16496 -0.28114,-0.40307 0,-0.17314 0.13884,-0.41702 0.2374,-0.41702 0.0326,0 0.12472,-0.0515 0.20473,-0.11444 0.08,-0.0629 0.22029,-0.11443 0.3117,-0.11443 0.18771,0 0.55874,0.17266 0.67686,0.31498 0.14089,0.16976 0.61416,0.37163 0.87125,0.37163 0.43074,0 1.13115,-0.3296 1.13115,-0.5323 0,-0.0504 0.12773,-0.2109 0.57373,-0.72092 0.24747,-0.283 0.68506,-1.20944 0.68506,-1.45036 0,-0.3723 0.29632,-0.67163 0.66531,-0.67207 0.29918,-3.4e-4 0.34055,0.10932 0.23299,0.61776 -0.19332,0.91388 -0.30735,1.36228 -0.39577,1.55631 -0.0502,0.11015 -0.10816,0.27751 -0.1288,0.37192 -0.0402,0.18393 -0.42075,0.96422 -0.62288,1.27727 -0.0744,0.11517 -0.26939,0.26846 -0.49468,0.38881 -0.48101,0.25697 -0.69487,0.37224 -0.80105,0.43176 -0.25457,0.1427 -0.42402,0.17929 -0.95061,0.20526 -0.41177,0.0203 -0.59079,0.009 -0.62065,-0.0394 z m -33.10289,-0.25717 c -0.17308,-0.0398 -0.50781,-0.12559 -0.74383,-0.19071 -0.23603,-0.0651 -0.58363,-0.13548 -0.77245,-0.15635 -0.83158,-0.0919 -2.22346,-0.40547 -2.55039,-0.57453 -0.089,-0.046 -0.19172,-0.0837 -0.22831,-0.0837 -0.0366,0 -0.32754,-0.12548 -0.64655,-0.27884 -0.319,-0.15336 -0.64438,-0.30812 -0.72305,-0.34392 -0.0787,-0.0358 -0.21949,-0.11151 -0.31293,-0.16827 -0.14772,-0.0897 -0.18983,-0.0932 -0.32298,-0.0268 -0.0842,0.042 -0.18628,0.11635 -0.22682,0.1652 -0.12074,0.14548 -0.50799,0.31739 -0.67221,0.29841 -0.13787,-0.0159 -0.15468,-0.0434 -0.16998,-0.27819 -0.0133,-0.20381 0.009,-0.28356 0.10014,-0.36648 0.0644,-0.0583 0.11711,-0.13612 0.11711,-0.17297 0,-0.0368 0.0644,-0.12745 0.14304,-0.20137 0.16637,-0.15629 0.17225,-0.20013 0.0566,-0.42186 -0.25936,-0.49731 -0.32233,-1.39591 -0.11969,-1.70802 0.0465,-0.0716 0.12737,-0.25716 0.17971,-0.4123 0.0523,-0.15513 0.18912,-0.42988 0.30396,-0.61054 0.18313,-0.28808 0.24522,-0.34009 0.50484,-0.42281 0.28268,-0.0901 0.32269,-0.0888 0.88688,0.0294 0.84832,0.17761 1.44227,0.42375 1.64734,0.68267 0.16038,0.2025 0.40257,1.00166 0.40257,1.32837 0,0.13762 -0.53904,0.73406 -0.66341,0.73406 -0.0325,0 -0.13302,0.0772 -0.22347,0.17166 -0.0905,0.0944 -0.18842,0.17165 -0.21772,0.17165 -0.0293,0 -0.14124,0.0772 -0.24877,0.17165 -0.10752,0.0944 -0.22035,0.17166 -0.25073,0.17166 -0.0304,0 -0.0552,0.0369 -0.0552,0.082 0,0.0903 0.0749,0.11942 0.45774,0.1778 0.14162,0.0216 0.29362,0.0685 0.3378,0.10431 0.0475,0.0385 0.32767,0.0674 0.68661,0.0708 0.33347,0.003 0.64799,0.024 0.69893,0.0462 0.0539,0.0235 0.17705,-0.007 0.2944,-0.073 0.34344,-0.1929 0.58768,-0.23543 0.9677,-0.16849 0.22823,0.0402 0.4067,0.11281 0.52539,0.21375 0.65126,0.55387 0.63759,0.54794 1.26461,0.54794 h 0.57445 l 0.0184,0.19222 c 0.0127,0.13286 -0.0174,0.23029 -0.0974,0.31548 -0.15152,0.1613 -0.29291,0.50487 -0.29291,0.71179 0,0.15766 -0.15126,0.35929 -0.26198,0.34922 -0.029,-0.003 -0.19433,-0.0373 -0.36742,-0.0771 z m -5.57876,-3.12232 c 0.057,-0.0629 0.1382,-0.11444 0.18052,-0.11444 0.0423,0 0.077,-0.041 0.077,-0.0912 0,-0.0502 0.0515,-0.10465 0.11444,-0.12111 0.0629,-0.0165 0.11444,-0.0599 0.11444,-0.0966 0,-0.0367 0.15448,-0.21952 0.3433,-0.40637 0.18882,-0.18685 0.34331,-0.36873 0.34331,-0.40417 0,-0.20088 -0.31039,-0.29815 -1.2468,-0.39072 -0.29223,-0.0289 -0.30659,-0.0236 -0.41462,0.15361 -0.20865,0.34219 -0.13308,1.16097 0.13444,1.45664 0.14351,0.15862 0.22059,0.16173 0.35401,0.0143 z m -42.5416204,2.76595 c -0.48086,-0.0911 -0.55186,-0.13229 -0.74728,-0.43384 -0.14581,-0.225 -0.22902,-0.45957 -0.32997,-0.93027 -0.2233,-1.04118 -0.22495,-0.97249 0.0273,-1.13165 0.44818,-0.28282 0.88576,-0.31091 1.0929,-0.0701 0.0708,0.0823 0.12874,0.19229 0.12874,0.24441 0,0.0521 0.10477,0.20154 0.23283,0.33202 0.2307504,0.23511 0.2347204,0.23656 0.4434404,0.16203 0.25044,-0.0894 0.80181,-0.10281 1.00794,-0.0244 0.13783,0.0524 0.14668,0.0794 0.14537,0.44344 -0.002,0.49025 -0.0776,0.8201 -0.25199,1.09639 l -0.13727,0.21744 -0.5342,0.0369 c -0.29381,0.0203 -0.6243204,0.0477 -0.7344704,0.0608 -0.11014,0.0131 -0.26463,0.0117 -0.3433,-0.003 z m 52.3545204,-0.58413 c -0.0787,-0.0199 -0.24604,-0.10433 -0.37192,-0.18768 -0.36043,-0.23864 -1.00131,-0.96598 -1.00131,-1.13639 0,-0.0343 -0.0426,-0.14478 -0.0947,-0.2455 -0.2281,-0.44088 -0.52364,-2.08009 -0.62046,-3.44126 -0.0332,-0.46656 -0.0613,-0.5598 -0.3186,-1.0575 -0.15521,-0.3002 -0.28221,-0.58653 -0.28221,-0.63628 0,-0.12944 0.29874,-0.39796 0.44274,-0.39796 0.1354,0 0.36944,0.26348 0.7814,0.87974 0.32614,0.48787 0.37567,0.66887 0.40472,1.47903 0.0208,0.58159 0.0409,0.68183 0.20358,1.01709 0.0992,0.20456 0.23851,0.43629 0.30949,0.51497 0.071,0.0787 0.19941,0.27178 0.28541,0.42913 0.13418,0.24552 0.15122,0.32759 0.12016,0.57869 -0.0631,0.51042 0.2593,0.93759 0.70771,0.93759 0.0941,0 0.18703,-0.0258 0.20648,-0.0572 0.0195,-0.0315 0.1098,-0.0572 0.20078,-0.0572 0.091,0 0.27986,-0.0772 0.41975,-0.17165 0.17484,-0.118 0.32418,-0.17166 0.47777,-0.17166 0.41217,0 0.47309,0.22906 0.15815,0.59454 -1.03526,1.20137 -1.00243,1.17646 -1.54254,1.16987 -0.18882,-0.002 -0.40768,-0.0204 -0.48635,-0.0403 z m 22.19119,-0.67602 c -0.11533,-0.12012 -0.26604,-0.32795 -0.33493,-0.46186 -0.0689,-0.1339 -0.14554,-0.256 -0.17034,-0.27133 -0.0667,-0.0412 -0.38639,-0.72149 -0.43127,-0.91773 -0.0213,-0.0933 -0.0876,-0.33322 -0.1472,-0.53322 -0.11737,-0.39365 -0.14515,-1.10582 -0.0526,-1.34918 0.048,-0.12618 0.0901,-0.14664 0.30039,-0.14589 0.13453,4.6e-4 0.27354,0.0198 0.30892,0.0429 0.056,0.0366 0.32396,0.72891 0.4815,1.24387 0.0289,0.0945 0.13036,0.25706 0.22543,0.36114 0.0951,0.10409 0.17284,0.21126 0.17284,0.23816 0,0.0269 0.023,0.0575 0.0512,0.068 0.0626,0.0233 0.22355,0.2892 0.50002,0.82593 0.23694,0.45999 0.2332,0.60223 -0.0231,0.87874 -0.11111,0.11986 -0.23041,0.17859 -0.41363,0.20364 -0.2429,0.0332 -0.26936,0.0228 -0.46716,-0.18317 z m 15.32955,-1.19889 c -0.12338,-0.0661 -0.15735,-0.1255 -0.15735,-0.27522 0,-0.15104 0.0273,-0.19778 0.13046,-0.22368 0.17513,-0.0439 0.38451,0.0158 0.38451,0.10971 0,0.0418 0.0708,0.10997 0.15735,0.15145 0.0935,0.0448 0.15735,0.12151 0.15735,0.18908 0,0.0951 -0.042,0.11524 -0.25749,0.1233 -0.14161,0.005 -0.32829,-0.0283 -0.41483,-0.0746 z m -79.30952,-0.29233 c -0.019,-0.0307 -0.18661,-0.0985 -0.3725,-0.15068 -0.60951,-0.17102 -0.90435,-0.49316 -1.21085,-1.32296 -0.14864,-0.40242 -0.22619,-1.41808 -0.1136,-1.48767 0.0315,-0.0194 0.0572,-0.0844 0.0572,-0.14443 0,-0.16911 0.32487,-0.50081 0.53167,-0.54286 0.10096,-0.0205 0.2654,-0.0655 0.36544,-0.0999 0.25077,-0.0862 0.78637,0.034 0.90482,0.20311 0.0667,0.0952 0.0863,0.30121 0.0863,0.9081 0,0.46158 -0.0236,0.79952 -0.0572,0.82031 -0.0315,0.0195 -0.0572,0.0725 -0.0572,0.11781 0,0.13696 0.25121,0.0944 0.52066,-0.0882 0.13848,-0.0938 0.27892,-0.17108 0.31207,-0.17165 0.15512,-0.003 0.66644,-0.31472 0.73801,-0.45039 0.0439,-0.0833 0.23635,-0.30513 0.42755,-0.49296 0.19121,-0.18784 0.34765,-0.36965 0.34765,-0.40404 0,-0.0344 0.0451,-0.11247 0.10013,-0.17351 0.14151,-0.15683 0.35762,-0.58811 0.35762,-0.71368 0,-0.0581 0.0244,-0.12072 0.0542,-0.13913 0.15562,-0.0962 0.53725,-0.78428 0.60399,-1.08903 0.0358,-0.16333 0.0781,-0.26857 0.36329,-0.90271 0.0676,-0.15033 0.12291,-0.32261 0.12291,-0.38285 0,-0.0602 0.0258,-0.12544 0.0572,-0.14489 0.0315,-0.0195 0.0572,-0.0853 0.0572,-0.14642 0,-0.24599 0.17259,-0.31906 0.86342,-0.36557 1.26032,-0.0848 2.81916,-0.23178 3.39933,-0.32042 0.90862,-0.13883 0.97138,-0.13706 1.04724,0.0294 0.11854,0.26017 0.084,0.53797 -0.0953,0.76616 -0.0901,0.11467 -0.20333,0.2858 -0.25163,0.38029 -0.13852,0.271 -0.26312,0.34994 -0.84335,0.53425 -0.49995,0.15881 -1.57634,0.29684 -1.97403,0.25314 -0.0629,-0.007 -0.39647,-0.0261 -0.74117,-0.0426 -0.34471,-0.0165 -0.6524,-0.0557 -0.68376,-0.0871 -0.11442,-0.11443 -0.19105,-0.0516 -0.22709,0.18616 -0.0203,0.13374 -0.0763,0.44916 -0.12454,0.70092 -0.0482,0.25176 -0.10918,0.58648 -0.13546,0.74383 -0.0871,0.52137 -0.24322,1.02506 -0.43992,1.4193 -0.10684,0.21415 -0.19426,0.43793 -0.19426,0.49728 0,0.0593 -0.0258,0.12382 -0.0572,0.14327 -0.0315,0.0195 -0.0572,0.076 -0.0572,0.12575 0,0.12415 -0.57667,0.97762 -0.81058,1.19966 -0.12088,0.11474 -0.35609,0.23608 -0.64224,0.33131 -0.24832,0.0826 -0.50557,0.17919 -0.57165,0.21456 -0.26463,0.14162 -1.60382,0.37517 -1.65708,0.28898 z m 21.97925,-0.71845 c -0.16644,-0.13536 -0.34768,-0.2633 -0.40275,-0.28429 -0.0551,-0.021 -0.10013,-0.0735 -0.10013,-0.1166 0,-0.0431 -0.0901,-0.16044 -0.20026,-0.26067 -0.36795,-0.33482 -0.21037,-0.60588 0.50235,-0.86412 0.14602,-0.0529 0.18034,-0.0354 0.41884,0.21338 0.43579,0.45464 0.59508,0.73758 0.59508,1.05703 0,0.38535 -0.0728,0.5014 -0.31448,0.5014 -0.14594,0 -0.27335,-0.0629 -0.49865,-0.24613 z m 15.02746,0.14512 c -0.12083,-0.0825 -0.39944,-0.91782 -0.45821,-1.3738 -0.0564,-0.43735 0.0403,-0.52783 0.56377,-0.52783 0.41392,0 1.52378,0.14735 1.73873,0.23084 0.073,0.0283 0.13915,0.11967 0.16195,0.2235 0.0317,0.14417 0.006,0.2169 -0.14439,0.40658 -0.15763,0.19903 -0.89124,0.74119 -1.00293,0.74119 -0.0211,0 -0.12637,0.0772 -0.2339,0.17165 -0.19206,0.16863 -0.47924,0.22738 -0.62502,0.12787 z m -17.97927,-0.19653 c -0.0408,-0.0408 -0.0687,-0.2372 -0.0687,-0.48376 v -0.4151 l 0.21457,-0.0338 c 0.11801,-0.0186 0.39481,-0.0842 0.6151,-0.14581 0.55255,-0.15448 0.71855,-0.14551 0.90478,0.0489 0.0846,0.0883 0.15375,0.18726 0.15375,0.22 0,0.0327 0.0515,0.10613 0.11444,0.16309 0.12884,0.1166 0.15074,0.32868 0.0429,0.41547 -0.0393,0.0317 -0.26463,0.0878 -0.50066,0.12482 -0.23602,0.037 -0.56861,0.0915 -0.73907,0.1211 -0.41751,0.0725 -0.65457,0.0677 -0.73715,-0.0148 z M 8.3858136,16.576995 c -0.2366,-0.14684 -0.25789,-0.18793 -0.34279,-0.66169 -0.0945,-0.52701 -0.0973,-0.97473 -0.007,-1.0473 0.0393,-0.0315 0.40782,-0.0754 0.81885,-0.0974 0.94304,-0.0506 0.91657,-0.0729 0.82504,0.69377 -0.10396,0.87069 -0.27739,1.11945 -0.82853,1.18839 -0.22731,0.0284 -0.32302,0.0129 -0.46581,-0.0757 z m 61.8950104,-0.36483 c -0.32112,-0.16515 -0.30148,-0.41046 0.0668,-0.83356 0.41343,-0.47504 0.69647,-0.81834 0.78589,-0.95322 0.0472,-0.0712 0.17927,-0.26779 0.29347,-0.43687 0.11421,-0.16907 0.25117,-0.40155 0.30438,-0.51662 0.11706,-0.25319 0.69719,-0.90654 0.80494,-0.90654 0.0424,0 0.0935,-0.0515 0.11349,-0.11444 0.02,-0.0629 0.0732,-0.11443 0.11829,-0.11443 0.0451,0 0.082,-0.0232 0.082,-0.0516 0,-0.0807 0.33445,-0.17725 0.6138,-0.17725 0.2247,0 0.29165,0.034 0.59092,0.30039 0.34857,0.31024 0.39376,0.4216 0.27399,0.67521 -0.0619,0.13104 -0.34741,0.34658 -0.67765,0.51156 -0.18511,0.0925 -0.51497,0.40488 -0.51497,0.48773 0,0.0353 -0.23817,0.2879 -0.52926,0.56126 -0.2911,0.27336 -0.77753,0.73374 -1.08095,1.02306 -0.30343,0.28932 -0.59953,0.54485 -0.65801,0.56785 -0.16622,0.0654 -0.43633,0.055 -0.58706,-0.0225 z m -7.32539,-0.0759 c -0.1708,-0.0459 -0.3386,-0.10676 -0.37286,-0.13521 -0.0343,-0.0284 -0.30081,-0.0931 -0.5923,-0.14366 -0.8063,-0.1399 -0.95188,-0.2237 -0.91701,-0.52784 0.014,-0.12246 0.073,-0.18763 0.24732,-0.27329 0.19972,-0.0982 0.36524,-0.11393 1.29984,-0.12379 0.58903,-0.006 1.15549,-0.029 1.2588,-0.0505 0.28799,-0.0601 0.73279,-0.20413 1.01086,-0.32723 0.34281,-0.15177 0.56563,-0.10148 0.82361,0.18589 0.11251,0.12533 0.2313,0.22787 0.26396,0.22787 0.0327,0 0.0856,0.049 0.11771,0.10897 0.0493,0.0922 0.005,0.16056 -0.28735,0.44344 -0.39162,0.37891 -0.49116,0.43945 -0.97869,0.5952 -0.42671,0.13632 -1.40276,0.14682 -1.87389,0.0202 z m 23.98426,-0.0739 c -0.24509,-0.33151 -0.18835,-0.48799 0.3787,-1.04435 0.51764,-0.50788 0.72273,-0.62067 1.12988,-0.6214 0.17204,-2.9e-4 0.1792,0.01 0.21407,0.30007 0.0658,0.54772 0.043,0.86217 -0.0767,1.05854 -0.0995,0.16316 -0.1434,0.18596 -0.35821,0.18596 -0.13465,0 -0.38608,0.0544 -0.55871,0.12089 -0.51275,0.19748 -0.58319,0.19751 -0.729,2.9e-4 z m 2.40405,-0.0753 c -0.37278,-0.19085 -0.37835,-0.35884 -0.035,-1.05663 0.39952,-0.81206 0.74962,-1.16354 1.15898,-1.16354 0.11924,0 0.20328,0.0447 0.27462,0.1461 0.0565,0.0804 0.18493,0.2483 0.28532,0.3732 0.10038,0.12491 0.19838,0.27712 0.21778,0.33823 0.0548,0.17268 -0.17586,0.43185 -0.68706,0.77199 -0.25301,0.16835 -0.54947,0.39814 -0.6588,0.51064 -0.10934,0.11251 -0.22455,0.20448 -0.25602,0.20438 -0.0315,-1.2e-4 -0.16637,-0.0561 -0.29977,-0.12437 z m -22.89546,-2.00645 c -0.16419,-0.0851 -0.42464,-0.56333 -0.4227,-0.77611 0.004,-0.48105 0.0994,-0.99217 0.22169,-1.19307 0.0732,-0.12021 0.17903,-0.30868 0.23522,-0.41883 0.13424,-0.26316 0.16952,-0.28418 0.47884,-0.28521 0.47552,-0.002 0.80239,0.45027 0.79375,1.0973 -0.003,0.21086 -0.12204,0.70479 -0.18543,0.76818 -0.0225,0.0225 -0.0409,0.097 -0.0409,0.16555 0,0.0686 -0.0508,0.17065 -0.11298,0.22689 -0.0621,0.0562 -0.12628,0.14417 -0.14255,0.19541 -0.0315,0.0993 -0.42254,0.29282 -0.58884,0.29142 -0.0548,-4.6e-4 -0.16109,-0.0326 -0.23609,-0.0715 z m -2.66733,-0.27559 c -0.12588,-0.0952 -0.26239,-0.2371 -0.30336,-0.31529 -0.07,-0.13359 -0.79138,-0.53833 -0.95949,-0.53833 -0.039,0 -0.16995,-0.0493 -0.29093,-0.10965 -0.50252,-0.25047 -1.31654,-0.45953 -1.79633,-0.46134 -0.17466,-6.5e-4 -0.34764,-0.0313 -0.38439,-0.068 -0.0898,-0.0898 -1.37377,-0.0909 -1.78704,-0.002 -0.70313,0.15203 -1.90091,0.0439 -2.17879,-0.19674 -0.0497,-0.043 -0.10345,-0.0782 -0.11947,-0.0782 -0.016,0 -0.20067,-0.15825 -0.41033,-0.35168 -0.29677,-0.2738 -0.38119,-0.38739 -0.38119,-0.51296 0,-0.23346 0.16495,-0.68409 0.31629,-0.86409 0.0718,-0.0854 0.13997,-0.1836 0.15152,-0.21826 0.0116,-0.0347 0.12868,-0.0775 0.26027,-0.0951 0.1833,-0.0246 0.29678,-10e-4 0.48513,0.0991 0.13522,0.0722 0.36172,0.14977 0.50334,0.17243 0.82362,0.13176 1.27273,0.17902 2.14567,0.22582 0.53499,0.0287 1.1272,0.0757 1.31602,0.10454 0.54249,0.0828 1.44218,0.35201 1.61512,0.48325 0.0386,0.0293 0.21885,0.13012 0.40052,0.22402 0.18166,0.0939 0.36892,0.20318 0.41613,0.24285 0.16049,0.13488 0.29473,0.14805 0.47721,0.0468 0.0994,-0.0552 0.19367,-0.11628 0.2094,-0.1358 0.0797,-0.0988 0.99383,-0.68287 1.11726,-0.71384 0.0784,-0.0197 0.15677,-0.0587 0.17407,-0.0867 0.0173,-0.028 0.10836,-0.0509 0.20238,-0.0509 0.13324,0 0.19243,0.0399 0.26841,0.18111 0.0536,0.0996 0.18115,0.27653 0.28343,0.39315 0.21472,0.24485 0.22633,0.32929 0.0787,0.57206 -0.0919,0.15118 -1.07105,0.85631 -1.18904,0.85631 -0.0225,0 -0.0982,0.0538 -0.16806,0.11943 l -0.12713,0.11943 0.17214,0.25506 c 0.19513,0.28912 0.27061,0.66088 0.16101,0.79294 -0.11644,0.14031 -0.40645,0.1007 -0.65846,-0.0899 z m -63.75210045,-2.0695 c -0.0226,-0.13375 -0.0344,-0.26655 -0.0263,-0.29512 0.008,-0.0286 0.0409,-0.32468 0.0728,-0.65801 0.11426,-1.19506 0.1673,-1.6994 0.22015,-2.09373 0.0295,-0.22029 0.081,-0.60418 0.11429,-0.85309 0.0333,-0.2489 0.11414,-0.67375 0.17958,-0.94409 0.0654,-0.27035 0.1407,-0.68466 0.16726,-0.92068 0.0265,-0.2360301 0.0881,-0.5707501 0.13668,-0.7438401 0.0486,-0.17308 0.10525,-0.54643 0.12584005,-0.82966 0.0394,-0.5428 0.0843,-0.65801 0.256,-0.65801 0.0995,0 0.56316,0.23011 0.72934,0.36194 0.0797,0.0632 0.0797,0.0612 -0.0469,1.12573 -0.11591,0.9745101 -0.18663,1.6599501 -0.34532,3.3472601 -0.0326,0.34617 -0.0835,0.78389 -0.11316,0.97271 -0.0297,0.18882 -0.0963,0.72953 -0.14796,1.20158 -0.10133,0.92515 -0.155,1.05853 -0.42598005,1.05853 -0.0856,0 -0.26506,0.0386 -0.39885,0.0858 -0.392,0.1383 -0.45065,0.11975 -0.49754,-0.15735 z m 8.62250005,-1.58367 c -0.0472,-0.027 -0.15019,-0.0796 -0.22887,-0.11683 -0.70613,-0.33421 -1.17991,-0.62022 -1.242,-0.74978 -0.0399,-0.0832 -0.0869,-0.52971 -0.10838,-1.02979 -0.0421,-0.9797 -0.0535,-1.01015 -0.45199,-1.21005 -0.48126,-0.24141 -0.57292,-0.42585 -0.37764,-0.7599 0.13663,-0.23374 0.32851,-0.32429 0.62509,-0.29501 0.60124,0.0594 0.90272,0.62088 0.96585,1.79893 0.0257,0.47868 0.0591,0.67766 0.12603,0.75065 0.0956,0.10418 0.56065,0.30075 0.94939,0.40127 0.53228,0.13763 0.59815,0.3342 0.29879,0.89168 -0.18893,0.35183 -0.34367,0.44052 -0.55627,0.31883 z m 23.5783904,-0.078 c -0.0274,-0.0721 -0.0911,-0.16537 -0.14163,-0.20727 -0.0505,-0.0419 -0.0918,-0.10849 -0.0918,-0.14799 0,-0.0395 -0.0403,-0.10524 -0.0895,-0.1461 -0.0605,-0.0502 -0.0776,-0.1219 -0.0527,-0.221 0.0483,-0.19231 0.11973,-0.23176 0.42168,-0.23281 0.32649,-10e-4 0.85729,-0.0843 1.88234,-0.29479 0.38364,-0.0788 0.45113,-0.18447 0.1983,-0.31052 -0.0703,-0.0351 -0.17307,-0.10369 -0.22836,-0.15253 -0.0553,-0.0488 -0.34059,-0.20868 -0.63399,-0.35522 -0.29341,-0.14653 -0.63844,-0.34246 -0.76673,-0.43539 -0.12829,-0.0929 -0.26158,-0.16903 -0.29619,-0.16909 -0.11836,-2.3e-4 -0.7493,-0.35641 -0.92394,-0.52157 -0.0959,-0.0907 -0.21039,-0.16493 -0.2544,-0.16493 -0.0828,0 -0.46015,0.23907 -0.65485,0.41483 -0.12775,0.11533 -0.3781,0.1318 -0.47842,0.0315 -0.1627,-0.16269 -0.0235,-0.59886 0.26138,-0.81919 0.0414,-0.032 0.10636,-0.112 0.14439,-0.17778 0.16453,-0.28458 0.38355,-0.5770401 0.54902,-0.7331501 0.16091,-0.1518 0.2294,-0.17218 0.70741,-0.21047 0.29109,-0.0233 0.83823,-0.0808 1.21587,-0.1277 0.37764,-0.0469 1.15008,-0.11536 1.71654,-0.15212 0.98333,-0.0638 1.17851,-0.0968 2.70437,-0.45701 0.1342,-0.0317 0.38373,-0.0576 0.5545,-0.0576 0.17078,0 0.32642,-0.0258 0.34587,-0.0572 0.0215,-0.0349 0.46441,-0.0577 1.13343,-0.0584 0.60394,-6.5e-4 1.52291,-0.0395 2.04217,-0.0864 l 0.9441,-0.0852 0.12874,0.14682 c 0.0776,0.0885 0.12794,0.21943 0.12673,0.32959 -0.003,0.30597 -0.15262,0.90549 -0.24956,1.00242 -0.0555,0.0555 -0.25412,0.10906 -0.50638,0.13647 -0.22826,0.0248 -0.64676,0.0704 -0.92998,0.1013201 -0.28323,0.0309 -0.86257,0.0835 -1.28741,0.11686 -0.42485,0.0333 -0.93497,0.0982 -1.13361,0.14409 -0.19864,0.0459 -0.49474,0.0844 -0.65801,0.0855 -0.16326,10e-4 -0.4642,0.04 -0.66876,0.0863 -0.20732,0.047 -0.80241,0.0967 -1.34462,0.1123 -0.53499,0.0154 -1.26881,0.0431 -1.63072,0.0615 -0.3619,0.0184 -0.83824,0.04 -1.05853,0.0479 -0.22371,0.008 -0.47527,0.0536 -0.56984,0.10321 l -0.16932,0.0888 0.19793,0.11748 c 0.10885,0.0646 0.22648,0.14238 0.26138,0.17281 0.0349,0.0304 0.16833,0.10884 0.29651,0.17423 0.12818,0.0654 0.24835,0.14364 0.26704,0.17389 0.035,0.0567 0.53154,0.40439 0.57744,0.40439 0.0142,0 0.0708,0.0391 0.12587,0.087 0.0551,0.0478 0.24967,0.20382 0.43244,0.34666 0.30681,0.23978 0.34632,0.25526 0.51496,0.2018 0.34664,-0.10988 3.10524,-0.36974 3.98119,-0.37503 0.38716,-0.002 0.49152,0.0155 0.54009,0.0922 0.17849,0.28187 -0.46807,1.09574 -0.97717,1.23004 -0.14942,0.0394 -0.40042,0.0732 -0.55777,0.075 -0.15735,0.002 -0.38942,0.0394 -0.51572,0.0834 -0.13366,0.0466 -0.57605,0.0928 -1.05853,0.1105 -0.5016,0.0184 -0.96447,0.0678 -1.17221,0.12504 -0.18882,0.052 -0.5493,0.11564 -0.80106,0.14135 -0.68483,0.0699 -1.64176,0.22304 -1.79075,0.2864901 -0.0723,0.0308 -0.22098,0.056 -0.33042,0.056 -0.15477,0 -0.21007,-0.0291 -0.24883,-0.1310901 z m 8.95515,-0.20028 c -0.0916,-0.0558 -0.19461,-0.15182 -0.22887,-0.21338 -0.0343,-0.0616 -0.10735,-0.17364 -0.16242,-0.24905 -0.13892,-0.19023 -0.12639,-0.31334 0.0715,-0.7028 0.0944,-0.18579 0.17165,-0.38337 0.17165,-0.43908 0,-0.0557 0.023,-0.12574 0.0511,-0.15564 0.03,-0.0319 0.0262,-0.29303 -0.009,-0.63292 -0.0331,-0.31822 -0.0441,-0.62076 -0.0243,-0.67232 0.0285,-0.0742 0.11677,-0.0936 0.42399,-0.0929 0.21341,4.6e-4 0.41598,0.0198 0.45017,0.0429 0.0912,0.0617 0.19533,0.40051 0.19533,0.63539 0,0.11239 0.0322,0.34348 0.0715,0.51352 l 0.0715,0.30917 0.42914,-0.0367 c 1.34151,-0.11482 1.8915,-0.14301 2.16447,-0.11093 0.36053,0.0424 0.41568,0.13043 0.42432,0.67759 0.006,0.39751 -0.0969,0.65595 -0.30059,0.75277 -0.0784,0.0373 -0.63174,0.12477 -1.22967,0.19446 -0.59793,0.0697 -1.24163,0.14627 -1.43045,0.17016 -0.90005,0.1139 -0.96732,0.11447 -1.13929,0.01 z m 10.93948,-1.14199 c -0.0482,-0.0551 -0.1223,-0.20312 -0.16464,-0.329 -0.0423,-0.12588 -0.12276,-0.29028 -0.17869,-0.36533 -0.0559,-0.0751 -0.10171,-0.17399 -0.10171,-0.21985 0,-0.0459 -0.0515,-0.14886 -0.11443,-0.22887 -0.0629,-0.08 -0.11444,-0.17909 -0.11444,-0.22016 0,-0.0984 -0.63776,-1.03986 -0.92688,-1.36831 -0.29632,-0.3366401 -0.44027,-0.3399001 -0.65957,-0.0149 -0.0903,0.13375 -0.18222,0.2818 -0.20435,0.32901 -0.0221,0.0472 -0.15622,0.24031 -0.29795,0.42913 -0.14174,0.18882 -0.35811,0.53642 -0.48081,0.77245 -0.12271,0.23602 -0.29996,0.502 -0.39389,0.59107 -0.29004,0.27503 -0.87406,0.26838 -0.77017,-0.009 0.0198,-0.0528 0.11526,-0.21182 0.21219,-0.35343 0.0969,-0.14162 0.23986,-0.38622 0.31763,-0.54357 0.0778,-0.15735 0.26398,-0.44403 0.4138,-0.63706 0.14982,-0.19303 0.27241,-0.37448 0.27241,-0.40322 0,-0.0287 0.10299,-0.15282 0.22887,-0.27574 0.12588,-0.1229201 0.22887,-0.2533601 0.22887,-0.2898701 0,-0.0654 0.40015,-0.44532 0.7342,-0.69714 0.0939,-0.0708 0.23466,-0.12874 0.31274,-0.12874 0.2631,0 0.41956,0.19151 0.89079,1.0903301 0.12466,0.23778 0.26952,0.4679 0.3219,0.51137 0.0524,0.0435 0.15559,0.19814 0.22936,0.34371 0.0738,0.14557 0.17475,0.29839 0.2244,0.33961 0.0497,0.0412 0.0903,0.10725 0.0903,0.14675 0,0.0395 0.0407,0.1056 0.0905,0.1469 0.071,0.0589 0.11399,0.0604 0.19949,0.007 0.0599,-0.0374 0.15934,-0.0681 0.22084,-0.0681 0.0615,0 0.12775,-0.0257 0.1472,-0.0572 0.0195,-0.0315 0.12245,-0.0572 0.22888,-0.0572 0.10643,0 0.20942,-0.0258 0.22887,-0.0572 0.0195,-0.0315 0.15874,-0.0572 0.30954,-0.0572 0.15079,0 0.35579,-0.0284 0.45556,-0.0632 0.1316,-0.0459 0.20213,-0.046 0.25698,-5.2e-4 0.0416,0.0345 0.091,0.0473 0.10995,0.0284 0.0189,-0.0189 0.58299,-0.0475 1.25353,-0.0635 0.75247,-0.018 1.24888,-0.053 1.29678,-0.0916 0.0562,-0.0452 0.0669,-0.13432 0.0388,-0.32224 -0.0213,-0.14285 -0.0502,-0.51721 -0.0642,-0.8319101 -0.014,-0.3147 -0.0379,-0.60655 -0.0532,-0.64857 -0.021,-0.0578 -0.1635,-0.0733 -0.58561,-0.0637 -0.82089,0.0186 -1.26135,0.001 -1.63333,-0.0647 -0.3756,-0.0665 -0.51625,-0.0396 -0.58992,0.11264 -0.0694,0.14341 -0.82974,0.9691601 -0.92664,1.0063501 -0.0427,0.0164 -0.13997,0.0142 -0.21615,-0.005 -0.10433,-0.0262 -0.1385,-0.0734 -0.1385,-0.1914 0,-0.1770801 0.13182,-0.4704701 0.25867,-0.5757501 0.0466,-0.0386 0.0846,-0.0994 0.0846,-0.13508 0,-0.0357 0.0966,-0.16932 0.21457,-0.29703 0.422,-0.45669 0.63693,-0.83903 0.53839,-0.95776 -0.0803,-0.0968 -0.0303,-0.15404 0.13459,-0.15404 0.0685,0 0.17124,-0.0515 0.2282,-0.11443 0.1325,-0.14641 0.37189,-0.14641 0.77245,0 0.17219,0.0629 0.44064,0.11443 0.59654,0.11443 0.1559,0 0.43431,0.0312 0.61868,0.0693 0.25993,0.0537 0.3598,0.0539 0.44457,9.6e-4 0.11361,-0.071 0.32421,-0.0536 0.71476,0.059 0.26343,0.0759 0.48266,0.21418 0.78675,0.49611 0.2329,0.21592 0.27088,0.40923 0.15784,0.80339 -0.0312,0.10879 -0.0725,0.43307 -0.0917,0.7206201 -0.0285,0.42612 -0.0172,0.5571 0.0609,0.70819 0.0999,0.19319 0.0928,0.35951 -0.0405,0.94745 -0.1077,0.47499 -0.079,0.46366 -1.28901,0.50866 -0.58955,0.0219 -1.22707,0.0376 -1.41672,0.0348 -0.18964,-0.003 -0.49385,0.0337 -0.676,0.0812 -0.18216,0.0474 -0.40257,0.072 -0.48979,0.0546 -0.0872,-0.0175 -0.25936,-0.002 -0.38253,0.0342 -0.12317,0.0363 -0.37843,0.0875 -0.56725,0.11394 -0.36982,0.0517 -0.50347,0.10127 -0.85827,0.31823 -0.27267,0.16674 -0.38163,0.17585 -0.49906,0.0417 z M 4.5888736,5.758465 c -0.11014,-0.059 -0.31582,-0.2260201 -0.45706,-0.3711301 -0.24824,-0.25504 -0.25396,-0.26883 -0.17166,-0.41334 0.0468,-0.0822 0.16239,-0.19172 0.2568,-0.24332 0.0944,-0.0516 0.27465,-0.15966 0.40053,-0.24012 0.12588,-0.0804 0.49923,-0.23843 0.82966,-0.35106 0.33044,-0.11263 0.72953,-0.25376 0.88688,-0.31362 0.15735,-0.0599 0.59507,-0.1792 0.97271,-0.26519 0.37764,-0.086 0.80248,-0.18313 0.9441,-0.21586 0.60385,-0.13957 2.3915304,-0.17719 2.5406204,-0.0535 0.12035,0.0999 0.1268,0.64786 0.009,0.74582 -0.0937,0.0778 -0.62818,0.20296 -1.3558604,0.31755 -0.27193,0.0428 -0.59761,0.10564 -0.72375,0.1396 -0.12613,0.034 -0.34137,0.0854 -0.4783,0.11422 -0.39522,0.0833 -1.02267,0.26882 -1.36472,0.40354 -0.17308,0.0682 -0.40481,0.15015 -0.51496,0.18217 -0.11014,0.032 -0.32915,0.15481 -0.48669,0.27286 -0.57193,0.4286001 -0.89455,0.5016301 -1.28707,0.2913401 z m -1.56169,-2.2588001 c -0.11939,-0.0709 -0.29963,-0.20566 -0.40053,-0.29954 -0.1009,-0.0939 -0.33241,-0.27163 -0.51445,-0.39502 -0.73876,-0.50069 -0.72754,-0.49017 -0.72754,-0.68169 0,-0.11877 0.049,-0.22676 0.14304,-0.31508 0.0787,-0.0739 0.14305,-0.15801 0.14305,-0.18689 0,-0.067 0.18679,-0.31534 0.51939,-0.69059003 0.14405,-0.16252 0.3495,-0.43308 0.45655,-0.60125 0.18563,-0.2916 0.20383,-0.30426 0.39326,-0.27352 0.11111,0.018 0.27255,0.10616 0.36642,0.20003 0.20306,0.20306 0.18597,0.3253 -0.10198,0.72952 -0.10936,0.15352003 -0.33025,0.47215003 -0.49086,0.70808003 l -0.29202,0.42895 0.17451,0.14323 c 0.45207,0.37103 0.56694,0.45793 0.60536,0.45793 0.1028,0 0.60087,0.47939 0.60087,0.57834 0,0.13448 -0.3172,0.3387 -0.51496,0.33154 -0.0787,-0.003 -0.24073,-0.0632 -0.36011,-0.13404 z m 10.0646904,-0.008 c -0.0191,-0.0498 -0.0347,-0.13675 -0.0347,-0.19326 0,-0.0565 -0.0386,-0.1348 -0.0858,-0.17398 -0.0472,-0.0392 -0.0855,-0.12601 -0.0852,-0.19296 9.3e-4,-0.17413 0.34888,-0.31967 1.31535,-0.55023 0.11015,-0.0263 0.432,-0.1142 0.71523,-0.19538 1.03099,-0.29552 2.33808,-0.60742 2.5462,-0.60757 0.0787,-6e-5 0.28466,-0.0393 0.45775,-0.0873 0.47521,-0.13165 0.90004,-0.20492 1.3505,-0.23293 0.53635,-0.0334 0.5632,-5.2e-4 0.52322,0.64036 -0.0381,0.61067 -0.0947,0.68313 -0.57444,0.73577 -0.19535,0.0214 -0.59746,0.089 -0.89357,0.15017 -0.29611,0.0611 -0.70808,0.11271 -0.91548,0.11459 -0.20741,0.002 -0.50585,0.0277 -0.6632,0.0575 -0.15735,0.0297 -0.5307,0.0897 -0.82966,0.13327 -0.29897,0.0436 -0.69806,0.11891 -0.88688,0.16745 -0.18882,0.0485 -0.47205,0.10535 -0.6294,0.12624 -0.15735,0.0209 -0.41307,0.0742 -0.56826,0.11837 -0.38298,0.10911 -0.69753,0.10481 -0.74164,-0.0101 z m 11.4661,-0.40765 c -0.21961,-0.0803 -0.57218,-0.55973 -0.57218,-0.7781 0,-0.25486 0.49172,-0.37651 0.96385,-0.23847 0.55384,0.16193 0.79834,0.25886 0.86963,0.34477 0.0378,0.0455 0.1042,0.0828 0.14755,0.0828 0.18245,0 0.0551,0.15195 -0.22255,0.26554 -0.16468,0.0674 -0.43293,0.1768 -0.59611,0.24318 -0.29718,0.12088 -0.42977,0.13891 -0.59019,0.0803 z m -21.0816104,-0.6319 c -0.0611,-0.27896 -0.0524,-0.58882 0.0185,-0.65972 0.17115,-0.17116 1.56586,-0.56176 2.69612,-0.75507 0.48778,-0.0834001 1.01562,-0.17466003 1.17297,-0.20274003 1.12395,-0.20054 1.61713,-0.24659 5.4929304,-0.51285 0.7281,-0.05 2.08588,-0.11668 4.17692,-0.20506 0.25176,-0.0106 0.81078,-0.0478 1.24226,-0.0825 0.92311,-0.0743 1.04969,-0.0428 1.00085,0.24919 -0.082,0.49009 -0.23916,0.62181 -0.7225,0.60543 -0.144,-0.005 -0.49355,0.0217 -0.77678,0.0591 -0.28323,0.0374 -0.66945,0.0521999 -0.85827,0.0329 -0.46107,-0.0471 -2.43759,0.14512003 -3.57613,0.34779003 -0.26749,0.0476 -0.93694,0.10967 -1.48767,0.1379 -0.55072,0.0282 -1.14293,0.0765 -1.31601,0.10738 -0.17309,0.0308 -0.5464304,0.0845 -0.8296604,0.11922 -0.55365,0.0679 -0.88914,0.11487 -1.91681,0.26832 -0.3619,0.054 -0.79714,0.0937 -0.96719,0.0881 -0.17005,-0.006 -0.51765,0.0441 -0.77245,0.11034 -0.25479,0.0663 -0.69499,0.14161 -0.97822,0.1674 -0.71664,0.0652 -1.10682,0.13597 -1.18577,0.21492 -0.037,0.037 -0.13735,0.0673 -0.22297,0.0673 -0.12331,0 -0.16282,-0.0327 -0.19012,-0.15735 z"/>
</svg>
