<?xml version="1.0" encoding="utf-8"?>
<svg xmlns="http://www.w3.org/2000/svg" version="1.1" viewBox="0 0 100 118">
	<title>A map of two triangular caverns.</title>
	<path d="m 61.247533,117.73047 c -0.136382,-0.13638 -0.247966,-1.11918 -0.247966,-2.184 0,-2.43045 -1.426092,-8.04796 -2.970754,-11.70208 -0.745396,-1.76335 -1.16739,-3.36997 -1.147071,-4.367137 0.0308,-1.51078 -0.03485,-1.60667 -1.551512,-2.2666 -0.871011,-0.37899 -2.587922,-0.99367 -3.815352,-1.36596 -2.650312,-0.80384 -4.493269,-1.533 -5.765203,-2.28096 -0.51143,-0.30075 -1.850444,-1.00003 -2.975589,-1.55395 -1.125144,-0.55392 -2.691171,-1.40624 -3.480059,-1.89403 -0.788888,-0.48779 -3.634295,-2.00883 -6.323126,-3.38009 -6.954189,-3.54651 -6.887074,-3.6988 2.550187,-5.78642 2.454861,-0.54305 5.21658,-1.20733 6.137152,-1.47619 0.920573,-0.26887 2.510653,-0.66476 3.533512,-0.87976 1.022858,-0.21501 2.612939,-0.57943 3.533511,-0.80983 0.920573,-0.23041 2.761719,-0.63624 4.091435,-0.90186 2.245695,-0.44859 5.437393,-1.21067 8.554817,-2.04263 0.716001,-0.19109 2.222393,-0.55274 3.347537,-0.80367 1.125145,-0.25093 2.547848,-0.70995 3.161563,-1.02005 0.613715,-0.31011 2.036419,-0.67295 3.161563,-0.80632 2.476307,-0.29355 6.03943,-1.24942 7.81092,-2.09543 0.716001,-0.34194 1.772629,-0.67514 2.348063,-0.74045 0.575435,-0.0653 1.359472,-0.28637 1.742304,-0.49125 0.382832,-0.20489 1.083661,-0.37209 1.557397,-0.37155 1.282732,10e-4 7.479838,-1.41292 10.717974,-2.44617 2.238506,-0.71427 3.477589,-0.67029 4.21976,0.1498 1.081914,1.1955 0.48886,4.15514 -0.832607,4.15514 -0.682112,0 -3.937276,1.73601 -4.478919,2.38865 -0.267914,0.32282 -0.706405,0.58694 -0.974431,0.58694 -0.268022,0 -0.588229,0.31796 -0.711575,0.70658 -0.123341,0.38862 -1.515482,1.59367 -3.093641,2.6779 -4.220103,2.89929 -6.40289,5.22739 -6.40289,6.82912 0,1.17702 -0.109926,1.30372 -1.329605,1.53253 -0.744269,0.13962 -1.492116,0.0869 -1.69876,-0.11972 -0.579138,-0.57914 -3.49857,2.4505 -3.789088,3.93214 -0.133567,0.68118 -0.485613,1.76913 -0.782323,2.41766 -0.296711,0.64853 -0.734071,1.93233 -0.971909,2.85291 -0.519018,2.00886 -3.455425,7.617657 -4.684139,8.947117 -0.483023,0.52262 -0.878442,1.19212 -0.87871,1.48779 -2.67e-4,0.29566 -0.669775,1.50175 -1.487794,2.68019 -0.818019,1.17845 -1.487526,2.35009 -1.487794,2.60364 -2.68e-4,0.25356 -0.661012,1.41258 -1.468327,2.57559 -1.260582,1.81599 -1.436603,2.30704 -1.246626,3.47775 0.155169,0.95618 0.06607,1.46141 -0.29843,1.69221 -0.623408,0.39473 -1.235267,0.43068 -1.573495,0.0924 z M 59.557726,92.296893 c -0.486155,-0.40493 -1.323039,-0.82791 -1.859742,-0.93996 -0.536704,-0.11205 -1.266463,-0.36099 -1.621689,-0.55321 -0.355226,-0.19221 -1.140387,-0.34948 -1.744803,-0.34948 -0.60442,0 -1.202387,-0.16738 -1.32882,-0.37195 -0.126433,-0.20457 -0.680286,-0.37092 -1.230785,-0.36966 l -1.000906,0.002 1.065376,0.55563 c 0.585956,0.30559 1.371117,0.55563 1.744803,0.55563 0.373686,0 0.782874,0.16738 0.909306,0.37195 0.126433,0.20457 0.596598,0.38418 1.044811,0.39913 0.448213,0.015 1.317063,0.33748 1.930778,0.71671 0.613715,0.37924 1.534288,0.6962 2.045717,0.70434 l 0.929872,0.0148 -0.883918,-0.73623 z m 2.085003,-2.43932 c -0.123599,-0.12359 -0.444404,-0.1368 -0.712903,-0.0293 -0.296714,0.11873 -0.208581,0.20687 0.22472,0.22471 0.392094,0.0161 0.611778,-0.0718 0.488183,-0.19535 z m 8.926766,0 c -0.123599,-0.12359 -0.444404,-0.1368 -0.712903,-0.0293 -0.296714,0.11873 -0.208581,0.20687 0.22472,0.22471 0.392094,0.0161 0.611778,-0.0718 0.488183,-0.19535 z m -10.585709,-0.76315 c -0.25182,-0.10189 -0.753951,-0.10809 -1.115846,-0.0138 -0.361894,0.0943 -0.155857,0.17766 0.457858,0.18525 0.613715,0.008 0.909808,-0.0696 0.657988,-0.17147 z m -5.780029,-1.46854 c -0.123598,-0.12359 -0.444404,-0.13681 -0.712902,-0.0294 -0.296715,0.11874 -0.208582,0.20687 0.22472,0.22472 0.392093,0.0161 0.611777,-0.0718 0.488182,-0.19535 z m -5.951177,-1.48779 c -0.123599,-0.1236 -0.444404,-0.13681 -0.712903,-0.0294 -0.296714,0.11873 -0.208581,0.20687 0.22472,0.22472 0.392094,0.0161 0.611778,-0.0718 0.488183,-0.19536 z m 11.158457,0 c -0.123598,-0.1236 -0.444404,-0.13681 -0.712902,-0.0294 -0.296715,0.11873 -0.208582,0.20687 0.22472,0.22472 0.392093,0.0161 0.611777,-0.0718 0.488182,-0.19536 z m -5.985947,-1.82329 c -0.585956,-0.3056 -1.422841,-0.55317 -1.859743,-0.55015 -0.747315,0.005 -0.739288,0.036 0.135505,0.52145 0.511429,0.28379 1.348314,0.53135 1.859743,0.55015 0.924415,0.034 0.923619,0.0309 -0.135505,-0.52145 z m -4.463383,-1.4878 c -0.585956,-0.30559 -1.401491,-0.55563 -1.812297,-0.55563 -0.62176,0 -0.669332,0.0935 -0.28389,0.55792 0.256727,0.30934 1.064212,0.55691 1.812298,0.55564 l 1.349265,-0.002 -1.065376,-0.55563 z m 5.714734,-1.19286 c -0.306858,-0.1136 -0.767144,-0.37195 -1.022859,-0.5741 -0.331931,-0.2624 -0.464936,-0.19492 -0.464936,0.23592 0,0.41748 0.315242,0.59441 1.022859,0.5741 0.582988,-0.0167 0.782929,-0.11819 0.464936,-0.23592 z m 10.685774,-2.93503 c -0.123599,-0.12359 -0.444405,-0.1368 -0.712903,-0.0293 -0.296715,0.11873 -0.208581,0.20687 0.22472,0.22471 0.392093,0.0161 0.611777,-0.0718 0.488183,-0.19535 z m 5.20728,-0.74389 c -0.123599,-0.1236 -0.444404,-0.13681 -0.712903,-0.0294 -0.296714,0.11873 -0.208581,0.20687 0.22472,0.22472 0.392094,0.0161 0.611778,-0.0718 0.488183,-0.19536 z M 46.230716,59.858453 c -0.860574,-0.45863 -2.644912,-1.81523 -3.965195,-3.01468 -1.32028,-1.199449 -2.739487,-2.371079 -3.153789,-2.603639 -0.851387,-0.4779 -3.47493,-2.286 -7.310129,-5.03804 -1.432002,-1.02756 -3.440525,-2.4493 -4.463383,-3.1594 -1.022859,-0.71011 -2.612939,-1.98768 -3.533512,-2.83904 -0.920573,-0.85137 -2.845407,-2.63134 -4.277409,-3.9555 -1.432002,-1.32416 -4.174152,-3.860181 -6.09367,-5.635591 C 6.2635025,26.980733 0,20.558013 0,19.837453 c 0,-0.39887 0.8629691,-1.53648 1.917711,-2.52803 1.0547421,-0.99155 2.2263801,-2.09573 2.6036401,-2.45373 0.37726,-0.358 0.7683454,-0.65091 0.8690728,-0.65091 0.2673269,0 1.8841129,-1.39008 4.3260856,-3.71948 1.1795185,-1.1251498 2.9399365,-2.7152298 3.9120425,-3.5335098 0.972106,-0.81829 2.967811,-2.70128 4.434899,-4.18443 3.019947,-3.05299996 4.41002,-3.53196996 4.857626,-1.67377 0.135516,0.56258 1.709885,3.95196 3.498601,7.53196 1.788712,3.5800098 3.530123,7.3712698 3.869797,8.4250298 0.339675,1.05375 1.781277,4.27309 3.203564,7.15408 1.422283,2.88099 2.585972,5.37677 2.585972,5.54618 0,0.1694 0.334754,1.00087 0.743897,1.84769 0.409144,0.84683 0.743898,1.7849 0.743898,2.08459 0,0.29969 0.150051,0.60068 0.333444,0.66888 0.361158,0.13429 5.617733,10.460181 5.617733,11.035351 0,0.19225 0.520245,1.49813 1.156102,2.90196 1.991294,4.39632 2.191435,4.88464 2.191435,5.34679 0,0.24764 0.593563,1.54925 1.319031,2.892469 2.045985,3.78818 1.298037,5.06289 -1.953835,3.32988 z M 34.219268,44.146644 c 0,-0.33421 -0.343018,-0.55792 -0.855481,-0.55792 -0.470515,0 -1.056334,-0.20085 -1.30182,-0.44634 -0.347151,-0.34715 -0.446339,-0.32542 -0.446339,0.0978 0,0.52943 1.20187,1.32671 2.138705,1.41874 0.255714,0.0251 0.464935,-0.2054 0.464935,-0.51226 z m 4.362648,0.33321 c -0.123598,-0.1236 -0.444404,-0.13681 -0.712902,-0.0294 -0.296715,0.11873 -0.208582,0.20687 0.22472,0.22471 0.392093,0.0161 0.611778,-0.0718 0.488182,-0.19535 z m -8.454082,-4.51068 c -0.716001,-0.0841 -1.460828,-0.30842 -1.655171,-0.4984 -0.194343,-0.18999 -0.758813,-0.34543 -1.254375,-0.34543 -0.758741,0 -0.827905,0.0881 -0.437991,0.55792 0.323986,0.39038 1.091609,0.54005 2.556194,0.4984 1.48072,-0.0421 1.712262,-0.10429 0.791343,-0.21249 z m 5.579229,-1.7737 c 0,-0.30686 -0.27156,-0.55793 -0.603465,-0.55793 -0.494245,0 -0.51966,0.10098 -0.140433,0.55793 0.25467,0.30685 0.52623,0.55792 0.603465,0.55792 0.07724,0 0.140433,-0.25107 0.140433,-0.55792 z m -5.308015,-1.1546 c -0.123599,-0.12359 -0.444404,-0.1368 -0.712903,-0.0293 -0.296715,0.11873 -0.208581,0.20687 0.22472,0.22471 0.392093,0.0162 0.611777,-0.0717 0.488183,-0.19535 z m -7.152263,-0.89112 c 0.126433,-0.20457 0.847664,-0.394741 1.602734,-0.422601 1.016204,-0.0375 1.131285,-0.094 0.442983,-0.21747 -0.511429,-0.0918 -1.088879,-0.32002 -1.283222,-0.50727 -0.194343,-0.18725 -0.728439,-0.34046 -1.186881,-0.34046 -0.458441,0 -0.936975,-0.16737 -1.063408,-0.37194 -0.126433,-0.20458 -0.817774,-0.37195 -1.536315,-0.37195 -1.161276,0 -1.244443,0.062 -0.748513,0.55792 0.306857,0.30686 0.653569,0.55792 0.770465,0.55792 0.1169,0 0.547297,0.33476 0.95644,0.7439 0.805496,0.805491 1.679552,0.964411 2.045717,0.371951 z m 5.304604,0.11639 c -0.355616,-0.0931 -1.025123,-0.0965 -1.487794,-0.008 -0.462671,0.089 -0.171714,0.16514 0.646573,0.16927 0.818287,0.004 1.196838,-0.0687 0.841221,-0.16176 z m 5.163093,-1.790161 c -0.306858,-0.30686 -1.1557,-0.55792 -1.886311,-0.55792 -0.730615,0 -1.328388,-0.16738 -1.328388,-0.37195 0,-0.20511 -0.959341,-0.37092 -2.138705,-0.36966 -2.125106,0.002 -2.131931,0.006 -1.073328,0.55792 0.585956,0.3056 1.705871,0.55564 2.4887,0.55564 0.782829,0 1.526771,0.16737 1.653204,0.37194 0.126433,0.20458 0.817774,0.37195 1.536315,0.37195 1.161276,0 1.244443,-0.062 0.748513,-0.55792 z m -12.117493,-2.46081 c 0.907387,-0.0237 1.315042,-0.11605 0.905899,-0.20515 -0.409143,-0.0891 -1.078651,-0.29991 -1.487794,-0.46847 -0.409144,-0.16855 -1.212058,-0.49468 -1.784256,-0.72472 -0.572199,-0.23004 -1.743837,-0.41735 -2.60364,-0.41624 l -1.563282,0.002 1.673769,1.61746 c 1.648086,1.59264 1.685552,1.60688 2.441638,0.92785 0.480766,-0.43176 1.384727,-0.70574 2.417666,-0.73275 z m 3.978812,0.53148 c -0.355617,-0.0931 -1.025124,-0.0965 -1.487795,-0.008 -0.46267,0.089 -0.171713,0.16514 0.646574,0.16927 0.818286,0.004 1.196837,-0.0687 0.841221,-0.16177 z m 6.411776,-1.79016 c 0,-0.42757 -0.472829,-0.55792 -2.023765,-0.55792 -1.113071,0 -2.127211,-0.16738 -2.253644,-0.37195 -0.126433,-0.20457 -0.79594,-0.37195 -1.487794,-0.37195 -0.691854,0 -1.361362,-0.16737 -1.487794,-0.37195 -0.126433,-0.20457 -0.963318,-0.37194 -1.859743,-0.37194 -0.896426,0 -1.733311,-0.16738 -1.859743,-0.37195 -0.126433,-0.20457 -0.628564,-0.37195 -1.115846,-0.37195 -0.487282,0 -0.989413,-0.16738 -1.115846,-0.37195 -0.126433,-0.20457 -0.79594,-0.37195 -1.487794,-0.37195 -0.691854,0 -1.361362,-0.16737 -1.487794,-0.37195 -0.126433,-0.20457 -0.628564,-0.37195 -1.115846,-0.37195 -0.487283,0 -0.989413,-0.16737 -1.115845,-0.37194 -0.126433,-0.20458 -0.834995,-0.37195 -1.574582,-0.37195 h -1.344705 l 0.873569,0.92987 c 0.748417,0.79665 1.201762,0.92987 3.164408,0.92987 1.259961,0 2.410532,0.11969 2.556827,0.26599 0.377364,0.37736 3.572945,1.18585 4.76436,1.20539 0.550499,0.009 1.104352,0.18379 1.230785,0.38836 0.126433,0.20458 0.79594,0.37195 1.487795,0.37195 0.691854,0 1.361361,0.16738 1.487794,0.37195 0.126433,0.20457 0.79594,0.37195 1.487794,0.37195 0.691854,0 1.361362,0.16738 1.487794,0.37195 0.382178,0.61837 2.789615,0.45787 2.789615,-0.18598 z m -1.829682,-3.68326 c -0.411736,-0.49611 -1.11508,-0.64924 -5.423315,-1.18073 -1.022859,-0.12619 -2.018751,-0.38059 -2.213095,-0.56532 -0.194343,-0.18474 -0.728439,-0.33589 -1.18688,-0.33589 -0.458442,0 -0.936976,-0.16738 -1.063408,-0.37195 -0.126433,-0.20457 -1.182418,-0.34516 -2.346632,-0.31242 -1.478462,0.0416 -1.724197,0.10565 -0.814931,0.21249 0.716001,0.0841 1.460828,0.30841 1.655171,0.4984 0.194343,0.18998 0.728439,0.34543 1.18688,0.34543 0.458442,0 0.936976,0.16738 1.063409,0.37195 0.126432,0.20457 0.777923,0.37195 1.447754,0.37195 0.669831,0 1.342187,0.12431 1.494125,0.27624 0.457158,0.45716 3.273199,1.11117 5.007569,1.16297 1.356222,0.0405 1.554418,-0.0381 1.193353,-0.47312 z M 9.8566374,23.503503 c 0.1264327,-0.20458 0.6285626,-0.37195 1.1158446,-0.37195 0.487283,0 0.989413,0.16737 1.115846,0.37195 0.126433,0.20457 1.01504,0.34516 1.974682,0.31242 1.359837,-0.0464 1.47809,-0.0926 0.535971,-0.20954 -0.664858,-0.0825 -1.208833,-0.28993 -1.208833,-0.46095 0,-0.30517 -1.700783,-0.60554 -5.3932535,-0.95249 -1.2712013,-0.11944 -1.6202378,-0.0706 -1.1029317,0.15435 0.4162439,0.181 0.9807131,0.59888 1.2543742,0.92863 0.5617205,0.67682 1.3645492,0.78378 1.7083004,0.22758 z m 17.2956076,0.0999 c -0.716001,-0.0841 -1.460828,-0.30841 -1.655171,-0.4984 -0.194343,-0.18999 -1.114916,-0.31864 -2.045717,-0.2859 -1.504145,0.0529 -1.547581,0.0765 -0.390546,0.21249 0.716001,0.0841 1.460828,0.30841 1.655171,0.4984 0.194343,0.18998 1.114916,0.31864 2.045717,0.2859 1.504145,-0.0529 1.547582,-0.0765 0.390546,-0.21249 z m -6.695074,-1.4878 c -0.716001,-0.0841 -1.460828,-0.30841 -1.655171,-0.4984 -0.194343,-0.18998 -0.947539,-0.32263 -1.673769,-0.29477 -1.015981,0.039 -1.106026,0.0891 -0.390546,0.21747 0.511429,0.0917 1.088879,0.32002 1.283223,0.50727 0.194343,0.18724 1.114915,0.31366 2.045717,0.28092 1.504145,-0.0529 1.547581,-0.0765 0.390546,-0.21249 z m -5.107215,-1.45975 c -0.25182,-0.10188 -0.753951,-0.10808 -1.115846,-0.0138 -0.361895,0.0943 -0.155857,0.17767 0.457858,0.18525 0.613715,0.008 0.909808,-0.0696 0.657988,-0.17147 z m 10.686444,-0.0241 c -0.51143,-0.0917 -1.08888,-0.32002 -1.283223,-0.50727 -0.194343,-0.18725 -1.114916,-0.31366 -2.045717,-0.28093 -1.504145,0.0529 -1.547582,0.0765 -0.390546,0.21249 0.716001,0.0841 1.460828,0.30842 1.655171,0.4984 0.194343,0.18999 0.947539,0.32264 1.673769,0.29478 1.015981,-0.039 1.106026,-0.0891 0.390546,-0.21747 z m -14.134046,-0.7439 c -0.511429,-0.0917 -1.08888,-0.32002 -1.283223,-0.50727 -0.194343,-0.18724 -0.7437102,-0.34045 -1.2208161,-0.34045 -0.5499818,0 -0.9765622,-0.29491 -1.1655455,-0.80578 l -0.2980796,-0.80578 -0.8739416,0.87394 -0.8739452,0.87394 1.2769962,0.46147 c 0.7023467,0.2538 2.1975652,0.4514 3.3227088,0.43911 1.125145,-0.0123 1.627275,-0.0974 1.115846,-0.18918 z m 8.466167,-0.73133 c -0.355617,-0.0931 -1.025124,-0.0965 -1.487795,-0.008 -0.46267,0.089 -0.171714,0.16514 0.646573,0.16926 0.818287,0.004 1.196838,-0.0687 0.841222,-0.16176 z m -3.359622,-0.71306 c -0.123595,-0.12359 -0.444404,-0.13681 -0.712903,-0.0293 -0.296714,0.11873 -0.208581,0.20687 0.22472,0.22472 0.392094,0.0161 0.611778,-0.0718 0.488183,-0.19536 z m -2.975589,-0.7439 c -0.123595,-0.12359 -0.444404,-0.13681 -0.712902,-0.0293 -0.296715,0.11874 -0.208581,0.20687 0.22472,0.22472 0.392093,0.0161 0.611777,-0.0718 0.488182,-0.19536 z m 11.259192,-0.37874 c 0,-0.47732 -0.109706,-0.51242 -0.524808,-0.16792 -0.358767,0.29775 -0.601073,0.31216 -0.765849,0.0456 -0.13257,-0.21451 -1.026203,-0.36322 -1.985845,-0.33048 -1.50294,0.0513 -1.564345,0.0807 -0.442983,0.21249 0.716001,0.0841 1.460828,0.30841 1.655171,0.4984 0.60147,0.58798 2.064314,0.40513 2.064314,-0.25804 z m -14.61872,-1.01915 c -0.338775,-0.71786 -0.502585,-0.79081 -0.8948744,-0.39852 -0.7433616,0.74337 -0.5700298,1.27723 0.4146844,1.27723 0.809695,0 0.855404,-0.0836 0.48019,-0.87871 z m 8.950841,-0.12075 c -0.355616,-0.0931 -1.025123,-0.0965 -1.487794,-0.008 -0.46267,0.089 -0.171714,0.16514 0.646573,0.16927 0.818287,0.004 1.196838,-0.0687 0.841221,-0.16177 z m -3.719485,-0.74389 c -0.355617,-0.0931 -1.025124,-0.0965 -1.487795,-0.008 -0.46267,0.089 -0.171713,0.16514 0.646573,0.16927 0.818287,0.004 1.196838,-0.0687 0.841222,-0.16176 z m -2.58441,-1.53985 c 0.101248,-1.0252 0.257113,-1.18018 1.18688,-1.18018 0.588683,0 1.173773,0.16737 1.300206,0.37194 0.126432,0.20458 0.79594,0.37195 1.487794,0.37195 0.691854,0 1.361361,0.16738 1.487794,0.37195 0.126433,0.20457 1.107098,0.37195 2.179254,0.37195 1.072157,0 2.150228,0.20085 2.395714,0.44634 0.347151,0.34715 0.446338,0.30582 0.446338,-0.18598 0,-0.51764 -0.367009,-0.63231 -2.023765,-0.63231 -1.113071,0 -2.127211,-0.16738 -2.253644,-0.37195 -0.126432,-0.20457 -0.717038,-0.37195 -1.312457,-0.37195 -0.595419,0 -1.633963,-0.30969 -2.307871,-0.6882 -1.398705,-0.7856 -1.875614,-0.62378 -3.874982,1.3148 -1.178437,1.14262 -1.192471,1.19008 -0.396687,1.34147 1.32506,0.25208 1.562099,0.089 1.685426,-1.15983 z m 4.432068,-3.6366 c -0.123595,-0.12359 -0.444404,-0.13681 -0.712903,-0.0293 -0.296714,0.11873 -0.208581,0.20687 0.22472,0.22472 0.392094,0.0161 0.611778,-0.0718 0.488183,-0.19536 z m 2.899265,-2.4011998 c -0.684523,-0.20426 -1.245176,-0.19206 -1.469197,0.0319 -0.235057,0.23505 0.153644,0.35103 1.10693,0.33029 1.451964,-0.0316 1.456216,-0.0358 0.362267,-0.36226 z"/>
</svg>
