<?xml version="1.0" encoding="utf-8"?>
<svg xmlns="http://www.w3.org/2000/svg" viewBox="0 0 65 10">
	<title>A phrase in heiroglyphic script.</title>
	<path d="M0 9.278c0-.544.15-.744.606-.808.573-.082.612-.236.74-2.872.12-2.52.195-2.836.77-3.3.633-.513.975-.582 3.266-.665.666-.023 2.165-.19 3.332-.37 1.37-.21 2.212-.233 2.38-.064.41.408-.033 1.392-.625 1.392-.292 0-.96.18-1.484.4l-.953.397.068 1.958c.038 1.077.016 2.133-.047 2.347-.076.26.156.44.693.542.668.126.807.282.807.905v.753l-4.776.053L0 10zm5.51-1.026c.69-.263.7-.302.623-2.627l-.078-2.36-.757-.087c-.417-.047-1.053.107-1.413.343-.584.384-.655.623-.655 2.194 0 2.656.5 3.214 2.28 2.538zm6.21 1.366c-.33-.533.464-3.052 1.24-3.936.845-.963.847-.97.43-2.013-.603-1.517-.698-2.43-.292-2.837.404-.405 1.894-.518 2.98-.226.705.188.79 1.02.295 2.873-.305 1.142-.286 1.204.902 3.035 1.554 2.395 1.852 2.97 1.643 3.18-.353.353-1.36.15-1.83-.37-.268-.295-.6-.537-.74-.537-.138 0-.56.242-.935.538-.725.57-3.39.78-3.693.292zm3.49-2.196c.166-.52-.27-1.598-.644-1.598-.357 0-.87 1.373-.706 1.89.194.61 1.13.407 1.35-.292zm-.14-4.662c0-.056-.182-.253-.404-.438-.33-.274-.403-.256-.403.102 0 .24.18.437.403.437.222 0 .404-.045.404-.1zm7.535 6.9c-.643-.125-1.567-1.718-1.678-2.893-.097-1.01-.156-1.077-.962-1.075-1.21.004-1.17-.842.064-1.358 1.066-.447 1.36-1.097.962-2.14-.224-.59-.413-.715-.935-.615-.65.123-.95-.203-.95-1.03 0-.294.44-.383 1.9-.383 2.616 0 3.864.74 2.27 1.347-.562.214-.672.433-.672 1.33 0 1.284.45 1.59 2.018 1.377 1.023-.14 1.08-.198 1.16-1.174.078-.93.008-1.056-.74-1.338-.565-.214-.823-.492-.823-.89 0-.536.168-.585 2.464-.717 3.73-.21 4.347-.063 6.003 1.452.787.72 1.535 1.302 1.662 1.294.126-.008.672-.597 1.213-1.308C36.56.228 37.326-.132 38.75.04c.37.046 1.885.094 3.365.11 1.48.014 2.842.12 3.026.238.377.24.804 2.294.665 3.198-.092.6-1.552 1.32-3.017 1.488-.602.07-.682.216-.756 1.392-.066 1.038-.004 1.284.293 1.17.555-.214.978.143 1.062.894.073.656.05.662-2.416.74l-2.488.077v-.785c0-.652.133-.81.787-.942l.786-.158.015-2.098c.02-2.72-.31-3.744-1.263-3.943-.567-.117-.87.01-1.362.578-.348.4-.976 1.125-1.395 1.61l-.762.882.776 1.477c.72 1.37.75 1.54.41 2.35-.343.822-.457.88-1.877.956-1.4.075-1.575.016-2.38-.8-.476-.484-1.017-.85-1.202-.81-.185.04-.337-.056-.337-.21 0-.155.166-.282.368-.282.416 0 2.323-2.334 2.323-2.845 0-.183-.394-.582-.875-.887-.48-.305-1.278-.885-1.77-1.29-.705-.578-1.137-.722-2.01-.67-1.392.082-1.742.367-1.603 1.31.083.567.364.856 1.165 1.198 1.358.58 1.423 1.3.12 1.3-.806 0-.96.104-1.092.74-.25 1.203-.99 2.496-1.725 3.016-.667.47-2.152.78-2.975.62zM25.3 6.836c.67-1.104.583-1.355-.554-1.588-1.62-.33-2.016.197-1.46 1.946.27.857 1.394.658 2.013-.358zm9.512-.068c-.085-.222-.263-.404-.395-.404s-.24.182-.24.404c0 .223.177.404.395.404.24 0 .334-.157.24-.403zM43.87 3.18c.514-.417.557-.577.29-1.078-.227-.424-.565-.588-1.214-.588-1.102 0-1.586.522-1.352 1.456.137.543.343.7.924.7.412 0 1.02-.22 1.352-.49zm3.118 5.493c-.23-.913-.148-1.057.606-1.09.975-.043 1.448-.884 1.29-2.297-.32-2.868-.72-3.772-1.665-3.772-.48 0-.665-.146-.665-.523 0-.286.11-.59.244-.672.374-.232 4.185-.272 4.548-.048.546.338.354.908-.368 1.09-.606.152-.68.293-.606 1.174l.083 1h2.96v-.942c0-.767-.11-.96-.592-1.027-.502-.072-1.13-1-.845-1.248.05-.044 1.22-.14 2.596-.216 2.42-.13 2.5-.117 2.422.426-.05.343-.345.623-.755.72-.575.132-.686.33-.76 1.357-.05.66-.01 1.957.087 2.88.155 1.472.266 1.722.896 2.023.406.194.757.612.806.96.086.602.045.612-2.152.535-2.09-.072-2.246-.118-2.327-.683-.063-.444.098-.676.6-.867.602-.23.666-.37.515-1.146-.094-.486-.304-.973-.466-1.08-.412-.28-1.346-.255-2.16.055-.554.21-.69.442-.69 1.178 0 .802.1.936.807 1.077.64.13.807.302.807.842 0 .585-.123.682-.875.696-.48.008-1.616.077-2.523.153-1.594.133-1.655.114-1.822-.553zm11.69-.74c-.84-1.127-.865-1.234-.74-3.212.228-3.538.98-4.404 3.863-4.448l1.978-.03v.973c0 .535-.118 1.153-.258 1.374-.222.352-.347.345-1.022-.054-1.08-.638-2.124-.782-2.488-.343-.434.524-.453 2.537-.033 3.547.646 1.55 2.727 1.597 3.54.08.352-.66.964-.694 1.145-.063.074.26.217.67.317.91.28.677-2.246 2.12-4.016 2.293-1.406.138-1.413.135-2.28-1.027z"/>
</svg>
