<?xml version="1.0" encoding="utf-8"?>
<svg xmlns="http://www.w3.org/2000/svg" viewBox="0 0 39 10">
	<title>A phrase in heiroglyphic script.</title>
	<path d="M13.945 9.77c-1.643-.194-1.97-.546-1.97-2.123 0-1.85.885-3.996 2.18-5.287 1.303-1.3 1.885-1.344 2.496-.196.253.474 1.192 1.87 2.087 3.1 1.422 1.953 1.763 2.274 2.688 2.532.954.266 1.797.856 1.543 1.08-.054.047-.905.155-1.89.238l-1.792.152-1.44-2.55c-2.375-4.208-2.3-4.13-2.993-3.08-.637.968-.633 1.608.015 2.82.594 1.112.8 2.676.422 3.198-.106.146-.678.196-1.345.117zm.173-2.01c.092-.15.038-.402-.12-.56-.22-.217-.348-.197-.526.084-.13.205-.238.456-.24.56-.006.287.696.22.886-.085zm22.65 2.016c-.205-.132-.56-.182-.79-.11-.285.087-.54-.122-.813-.668-.578-1.152-.52-1.283.848-1.903 1.488-.675 1.906-.7 2.09-.124.076.24.34.746.588 1.123.446.68.443.694-.223 1.31-.724.667-1.106.75-1.698.373zM.175 9.36c-.66-.176.672-2.514 1.957-3.44 1.307-.94 1.46-1.344.926-2.457-.365-.76-.377-.99-.09-1.676C3.377.797 4.49.275 5.55.577c.414.12.844.36.955.533.33.518.236 2.054-.158 2.573-.604.793-.45 1.15 1.265 2.928 1.173 1.216 1.615 1.853 1.56 2.244-.123.85-1.08.85-1.622 0-.737-1.15-2.154-2.79-2.543-2.938-.657-.25-2.666 1.273-3.274 2.484-.548 1.092-.703 1.187-1.562.96zm5.023-7.094c-.316-.586-.885-.6-1.205-.03-.178.315-.136.556.153.874.37.406.432.408.85.03.345-.31.393-.518.202-.874zm25.97 4.89c-.08-.208-.28-.348-.447-.312-.173.037-.333-.26-.375-.695-.07-.73-.04-.756.797-.66.478.057.87-.01.87-.145 0-.36.862-.528 1.34-.26.25.137.412.545.412 1.027 0 .714-.107.833-.998 1.11-1.275.395-1.422.39-1.598-.067zm-7.922-2.862c0-.28-.123-.705-.275-.946-.2-.32-.2-.717 0-1.452C23.23.93 23.315.86 24.81.41c2.203-.664 5.454-.51 7.77.37.847.32 1.04.758.827 1.88-.178.946-.722 1.25-2.085 1.167-.447-.027-.814.057-.814.188 0 .233-1.095.37-5.196.647-1.958.132-2.067.113-2.067-.368zm8.488-2.088c.588-.704-.37-1.01-3.193-1.02-2.932-.01-4.042.19-4.042.728 0 .29.42.33 2.316.227 1.274-.07 2.768-.018 3.32.115.55.133 1.07.253 1.158.267.086.014.285-.128.44-.316zm3.973 1.874c-.653-.226-1.19-.528-1.19-.67 0-.432 2.115-2.358 2.59-2.358.245 0 .38.103.302.228-.078.126-.044.49.076.81.12.32.294 1.002.39 1.516.157.862.126.933-.405.91-.317-.014-1.11-.21-1.764-.436zm-16.55-1.7c-.246-.243-.205-1.027.062-1.19.294-.182 1.022.532 1.022 1 0 .36-.777.497-1.085.19zm1.73-.492c-.192-.5-.175-.517.606-.625.492-.068.644.034.706.474.065.45-.04.56-.536.56-.34 0-.688-.182-.775-.41z"/>
</svg>
