<?xml version="1.0" encoding="utf-8"?>
<svg xmlns="http://www.w3.org/2000/svg" viewBox="0 0 36 10">
	<title>A phrase in hieroglyphic script.</title>
	<path d="M.553 8.33C.25 7.413 0 6.516 0 6.338c0-.87 1.626-.232 1.99.78.144.407.15.407.544 0 .22-.225.907-1.135 1.53-2.022C6.03 2.285 7.438.45 7.77.265c.176-.1.81-.102 1.41-.007.6.095 2.237.175 3.638.18 1.402.003 3.36.077 4.35.164l1.8.158.108 1.91.105 1.913 1.3-.048 1.298-.05.14.88c.077.484.065.953-.027 1.043-.09.09-1.167.193-2.39.23l-2.227.07-.105-1.95c-.058-1.07-.166-2.006-.24-2.08-.072-.07-.93-.173-1.906-.224-.977-.052-2.268-.147-2.87-.212-.617-.067-1.15-.028-1.223.088-.07.113.108.554.396.98.288.426.583.96.655 1.186.122.382.273.402 2.083.275l1.95-.137.26.57c.58 1.273.497 1.327-2.232 1.474-1.368.074-2.932.188-3.474.254-.936.114-1.002.088-1.31-.53-.286-.577-.287-.686-.01-.968.175-.175.505-.318.734-.318.686 0 .713-.617.08-1.83C9.53 2.268 9.39 2.14 8.795 2.14c-.64 0-1.25.456-1.707 1.275-.152.273-.127.277.175.032.61-.495 1.817-.67 2.172-.315.452.454.383.903-.172 1.115-1.603.61-2.64 1.295-4.312 2.846C2.84 9.048 1.654 10 1.323 10 1.2 10 .853 9.25.55 8.33zM23.88 6.248c-.274-.274-.132-.748.836-2.79.537-1.133 1.11-2.37 1.274-2.75.532-1.236 1.338-.835 2.17 1.08.254.587.558.99.705.942.143-.05.55-.64.905-1.316l.645-1.227 2.62.115c1.44.063 2.66.157 2.712.208.168.168.342 4.77.202 5.33l-.14.55h-3.795c-3.663 0-3.802-.017-3.937-.444-.077-.244-.39-.985-.698-1.646-.548-1.185-.595-1.312-.648-1.735-.053-.42-.446-.2-.772.432-.183.354-.523 1.263-.756 2.018-.314 1.022-.52 1.374-.803 1.374-.208 0-.443-.065-.52-.143zm10.125-2.025c.048-.152.15-.74.225-1.304.126-.944.104-1.018-.264-.9-.22.07-.99.046-1.708-.052l-1.307-.18L30.1 2.8c-1.303 1.55-1.276 1.575 1.854 1.652 1.46.036 1.986-.023 2.05-.228z"/>
</svg>
