<?xml version="1.0" encoding="UTF-8"?>
<svg xmlns="http://www.w3.org/2000/svg" xmlns:se="https://standardebooks.org/vocab/1.0" version="1.1" viewBox="0 0 1400 540" se:generated-from="d0a312bbc26cb87256d64f6db2ea93c0c8c61993">
	<path d="M 201.61856,66.843806 219.95828,66.843806 219.95828,128.60001 237.54943,128.60001 237.54943,66.843806 255.88915,66.843806 255.88915,51.404756 201.61856,51.404756 201.61856,66.843806 Z"/>
	<path d="M 284.8153,97.628336 309.70492,97.628336 309.70492,128.60001 327.29608,128.60001 327.29608,51.404756 309.70492,51.404756 309.70492,82.189286 284.8153,82.189286 284.8153,51.404756 267.22414,51.404756 267.22414,128.60001 284.8153,128.60001 284.8153,97.628336 Z"/>
	<path d="M 387.6632,51.404756 343.49816,51.404756 343.49816,128.60001 387.6632,128.60001 387.6632,113.16096 361.08932,113.16096 361.08932,97.628336 386.54036,97.628336 386.54036,82.189286 361.08932,82.189286 361.08932,66.843806 387.6632,66.843806 387.6632,51.404756 Z"/>
	<path d="M 450.95278,80.692166 451.13992,80.692166 481.83088,128.60001 499.42204,128.60001 499.42204,51.404756 481.83088,51.404756 481.83088,99.312596 481.64374,99.312596 450.95278,51.404756 433.36162,51.404756 433.36162,128.60001 450.95278,128.60001 450.95278,80.692166 Z"/>
	<path d="M 554.87234,51.404756 538.59116,51.404756 507.43235,128.60001 526.33349,128.60001 532.04126,113.16096 561.42224,113.16096 567.13001,128.60001 586.03115,128.60001 554.87234,51.404756 Z M 555.43376,97.721906 538.02974,97.721906 546.63818,75.265106 546.82532,75.265106 555.43376,97.721906 Z"/>
	<path d="M 593.95084,51.404756 593.95084,128.60001 611.542,128.60001 611.542,98.096186 635.12164,128.60001 657.48487,128.60001 630.91099,96.692636 C 640.36156,93.698396 646.72432,85.932086 646.72432,74.329406 646.72432,59.171066 635.8702,51.404756 621.55399,51.404756 L 593.95084,51.404756 Z M 611.542,85.651376 611.542,65.440256 613.60054,65.440256 C 620.24401,65.440256 628.19746,65.908106 628.19746,75.545816 628.19746,85.183526 620.24401,85.651376 613.60054,85.651376 L 611.542,85.651376 Z"/>
	<path d="M 666.02152,51.404756 666.02152,128.60001 683.61268,128.60001 683.61268,98.096186 707.19232,128.60001 729.55555,128.60001 702.98167,96.692636 C 712.43224,93.698396 718.795,85.932086 718.795,74.329406 718.795,59.171066 707.94088,51.404756 693.62467,51.404756 L 666.02152,51.404756 Z M 683.61268,85.651376 683.61268,65.440256 685.67122,65.440256 C 692.31469,65.440256 700.26814,65.908106 700.26814,75.545816 700.26814,85.183526 692.31469,85.651376 685.67122,85.651376 L 683.61268,85.651376 Z"/>
	<path d="M 777.29806,51.404756 761.01688,51.404756 729.85807,128.60001 748.75921,128.60001 754.46698,113.16096 783.84796,113.16096 789.55573,128.60001 808.45687,128.60001 777.29806,51.404756 Z M 777.85948,97.721906 760.45546,97.721906 769.0639,75.265106 769.25104,75.265106 777.85948,97.721906 Z"/>
	<path d="M 806.94204,66.843806 825.28176,66.843806 825.28176,128.60001 842.87292,128.60001 842.87292,66.843806 861.21264,66.843806 861.21264,51.404756 806.94204,51.404756 806.94204,66.843806 Z"/>
	<path d="M 890.13877,51.404756 872.54761,51.404756 872.54761,128.60001 890.13877,128.60001 890.13877,51.404756 Z"/>
	<path d="M 922.70539,128.60001 936.55375,128.60001 968.92897,51.404756 949.09213,51.404756 929.62957,102.1197 910.16701,51.404756 890.33017,51.404756 922.70539,128.60001 Z"/>
	<path d="M 1021.0137,51.404756 976.84864,51.404756 976.84864,128.60001 1021.0137,128.60001 1021.0137,113.16096 994.4398,113.16096 994.4398,97.628336 1019.8908,97.628336 1019.8908,82.189286 994.4398,82.189286 994.4398,66.843806 1021.0137,66.843806 1021.0137,51.404756 Z"/>
	<path d="M 1063.25,89.955596 C 1063.25,112.50597 1079.3441,130.00356 1102.1751,130.00356 1124.3512,130.00356 1141.0067,112.50597 1141.0067,89.955596 1141.0067,67.405226 1123.6027,50.001206 1102.1751,50.001206 1080.9347,50.001206 1063.25,67.405226 1063.25,89.955596 Z M 1082.2447,89.955596 C 1082.2447,78.446486 1088.6075,66.937376 1102.1751,66.937376 1115.8364,66.937376 1122.012,78.446486 1122.012,89.955596 1122.012,101.46471 1116.2106,112.97382 1102.1751,112.97382 1087.7654,112.97382 1082.2447,101.46471 1082.2447,89.955596 Z"/>
	<path d="M 1198.4015,51.404756 1153.7686,51.404756 1153.7686,128.60001 1171.3598,128.60001 1171.3598,97.628336 1196.343,97.628336 1196.343,82.189286 1171.3598,82.189286 1171.3598,66.843806 1198.4015,66.843806 1198.4015,51.404756 Z"/>
	<path d="M 147.91003,151.40476 131.62885,151.40476 100.47004,228.60001 119.37118,228.60001 125.07895,213.16096 154.45993,213.16096 160.1677,228.60001 179.06884,228.60001 147.91003,151.40476 Z M 148.47145,197.72191 131.06743,197.72191 139.67587,175.26511 139.86301,175.26511 148.47145,197.72191 Z"/>
	<path d="M 186.98851,151.40476 186.98851,228.60001 204.57967,228.60001 204.57967,198.09619 228.15931,228.60001 250.52254,228.60001 223.94866,196.69264 C 233.39923,193.6984 239.76199,185.93209 239.76199,174.32941 239.76199,159.17107 228.90787,151.40476 214.59166,151.40476 L 186.98851,151.40476 Z M 204.57967,185.65138 204.57967,165.44026 206.63821,165.44026 C 213.28168,165.44026 221.23513,165.90811 221.23513,175.54582 221.23513,185.18353 213.28168,185.65138 206.63821,185.65138 L 204.57967,185.65138 Z"/>
	<path d="M 250.53848,166.84381 268.8782,166.84381 268.8782,228.60001 286.46936,228.60001 286.46936,166.84381 304.80908,166.84381 304.80908,151.40476 250.53848,151.40476 250.53848,166.84381 Z"/>
	<path d="M 333.73522,197.62834 358.62484,197.62834 358.62484,228.60001 376.216,228.60001 376.216,151.40476 358.62484,151.40476 358.62484,182.18929 333.73522,182.18929 333.73522,151.40476 316.14406,151.40476 316.14406,228.60001 333.73522,228.60001 333.73522,197.62834 Z"/>
	<path d="M 451.74147,151.40476 434.15031,151.40476 434.15031,196.03765 C 434.15031,208.95031 430.22037,212.69311 421.61193,212.69311 413.00349,212.69311 409.07355,208.95031 409.07355,196.03765 L 409.07355,151.40476 391.48239,151.40476 391.48239,201.184 C 391.48239,220.27228 401.96223,230.00356 421.61193,230.00356 441.26163,230.00356 451.74147,220.27228 451.74147,201.184 L 451.74147,151.40476 Z"/>
	<path d="M 467.04731,151.40476 467.04731,228.60001 484.63847,228.60001 484.63847,198.09619 508.21811,228.60001 530.58134,228.60001 504.00746,196.69264 C 513.45803,193.6984 519.82079,185.93209 519.82079,174.32941 519.82079,159.17107 508.96667,151.40476 494.65046,151.40476 L 467.04731,151.40476 Z M 484.63847,185.65138 484.63847,165.44026 486.69701,165.44026 C 493.34048,165.44026 501.29393,165.90811 501.29393,175.54582 501.29393,185.18353 493.34048,185.65138 486.69701,185.65138 L 484.63847,185.65138 Z"/>
	<path d="M 639.50678,185.37067 603.85661,185.37067 603.85661,198.93832 621.63491,198.93832 C 621.63491,208.38889 613.30718,213.81595 604.88588,213.81595 594.03176,213.81595 585.23618,203.14897 585.23618,190.04917 585.23618,176.66866 594.03176,165.90811 604.88588,165.90811 611.71649,165.90811 617.6114,168.62164 622.10276,175.82653 L 633.61187,163.19458 C 626.87483,155.05399 617.42426,150.00121 603.85661,150.00121 582.14837,150.00121 566.24147,167.87308 566.24147,190.04917 566.24147,212.13169 583.08407,230.00356 603.85661,230.00356 619.01495,230.00356 635.29613,221.67583 639.50678,202.1197 L 639.50678,185.37067 Z"/>
	<path d="M 648.72911,189.9556 C 648.72911,212.50597 664.82315,230.00356 687.65423,230.00356 709.83032,230.00356 726.48578,212.50597 726.48578,189.9556 726.48578,167.40523 709.08176,150.00121 687.65423,150.00121 666.41384,150.00121 648.72911,167.40523 648.72911,189.9556 Z M 667.72382,189.9556 C 667.72382,178.44649 674.08658,166.93738 687.65423,166.93738 701.31545,166.93738 707.49107,178.44649 707.49107,189.9556 707.49107,201.46471 701.68973,212.97382 687.65423,212.97382 673.24445,212.97382 667.72382,201.46471 667.72382,189.9556 Z"/>
	<path d="M 739.24771,151.40476 739.24771,228.60001 756.83887,228.60001 756.83887,198.09619 780.41851,228.60001 802.78174,228.60001 776.20786,196.69264 C 785.65843,193.6984 792.02119,185.93209 792.02119,174.32941 792.02119,159.17107 781.16707,151.40476 766.85086,151.40476 L 739.24771,151.40476 Z M 756.83887,185.65138 756.83887,165.44026 758.89741,165.44026 C 765.54088,165.44026 773.49433,165.90811 773.49433,175.54582 773.49433,185.18353 765.54088,185.65138 758.89741,185.65138 L 756.83887,185.65138 Z"/>
	<path d="M 811.31839,151.40476 811.31839,228.60001 833.68162,228.60001 C 854.92201,228.60001 872.60674,212.50597 872.60674,189.9556 872.60674,167.4988 854.82844,151.40476 833.68162,151.40476 L 811.31839,151.40476 Z M 828.90955,212.88025 828.90955,167.12452 831.62308,167.12452 C 844.72288,167.12452 853.61203,177.13651 853.61203,190.04917 853.51846,202.96183 844.62931,212.88025 831.62308,212.88025 L 828.90955,212.88025 Z"/>
	<path d="M 881.9373,189.9556 C 881.9373,212.50597 898.03134,230.00356 920.86242,230.00356 943.03851,230.00356 959.69397,212.50597 959.69397,189.9556 959.69397,167.40523 942.28995,150.00121 920.86242,150.00121 899.62203,150.00121 881.9373,167.40523 881.9373,189.9556 Z M 900.93201,189.9556 C 900.93201,178.44649 907.29477,166.93738 920.86242,166.93738 934.52364,166.93738 940.69926,178.44649 940.69926,189.9556 940.69926,201.46471 934.89792,212.97382 920.86242,212.97382 906.45264,212.97382 900.93201,201.46471 900.93201,189.9556 Z"/>
	<path d="M 990.04707,180.69217 990.23421,180.69217 1020.9252,228.60001 1038.5163,228.60001 1038.5163,151.40476 1020.9252,151.40476 1020.9252,199.3126 1020.738,199.3126 990.04707,151.40476 972.45591,151.40476 972.45591,228.60001 990.04707,228.60001 990.04707,180.69217 Z"/>
	<path d="M 1085.3463,151.40476 1085.3463,228.60001 1102.9375,228.60001 1102.9375,199.96759 1113.5109,199.96759 C 1128.5757,199.96759 1139.8977,191.07844 1139.8977,175.17154 1139.8977,159.17107 1128.5757,151.40476 1113.5109,151.40476 L 1085.3463,151.40476 Z M 1102.9375,185.93209 1102.9375,165.44026 1107.8967,165.44026 C 1114.8209,165.44026 1121.3708,167.77951 1121.3708,175.73296 1121.3708,183.59284 1114.8209,185.93209 1107.8967,185.93209 L 1102.9375,185.93209 Z"/>
	<path d="M 1135.8375,151.40476 1164.2827,193.97911 1164.2827,228.60001 1181.8739,228.60001 1181.8739,193.97911 1210.3192,151.40476 1189.1724,151.40476 1173.0783,176.10724 1156.9843,151.40476 1135.8375,151.40476 Z"/>
	<path d="M 1281.9717,228.60001 1299.5629,228.60001 1292.6387,151.40476 1273.9247,151.40476 1256.8014,195.94408 1239.6781,151.40476 1220.9641,151.40476 1214.0399,228.60001 1231.631,228.60001 1235.2803,182.84428 1235.7481,182.84428 1251.5614,228.13216 1262.0413,228.13216 1277.8546,182.84428 1278.3225,182.84428 1281.9717,228.60001 Z"/>
	<path d="M 293.63212,289.9556 C 293.63212,312.50597 309.72616,330.00356 332.55724,330.00356 354.73333,330.00356 371.38879,312.50597 371.38879,289.9556 371.38879,267.40523 353.98477,250.00121 332.55724,250.00121 311.31685,250.00121 293.63212,267.40523 293.63212,289.9556 Z M 312.62683,289.9556 C 312.62683,278.44649 318.98959,266.93738 332.55724,266.93738 346.21846,266.93738 352.39408,278.44649 352.39408,289.9556 352.39408,301.46471 346.59274,312.97382 332.55724,312.97382 318.14746,312.97382 312.62683,301.46471 312.62683,289.9556 Z"/>
	<path d="M 428.7836,251.40476 384.15071,251.40476 384.15071,328.60001 401.74187,328.60001 401.74187,297.62834 426.72506,297.62834 426.72506,282.18929 401.74187,282.18929 401.74187,266.84381 428.7836,266.84381 428.7836,251.40476 Z"/>
	<path d="M 490.32606,280.69217 490.5132,280.69217 521.20416,328.60001 538.79532,328.60001 538.79532,251.40476 521.20416,251.40476 521.20416,299.3126 521.01702,299.3126 490.32606,251.40476 472.7349,251.40476 472.7349,328.60001 490.32606,328.60001 490.32606,280.69217 Z"/>
	<path d="M 594.24563,251.40476 577.96445,251.40476 546.80564,328.60001 565.70678,328.60001 571.41455,313.16096 600.79553,313.16096 606.5033,328.60001 625.40444,328.60001 594.24563,251.40476 Z M 594.80705,297.72191 577.40303,297.72191 586.01147,275.26511 586.19861,275.26511 594.80705,297.72191 Z"/>
	<path d="M 650.91526,280.69217 651.1024,280.69217 681.79336,328.60001 699.38452,328.60001 699.38452,251.40476 681.79336,251.40476 681.79336,299.3126 681.60622,299.3126 650.91526,251.40476 633.3241,251.40476 633.3241,328.60001 650.91526,328.60001 650.91526,280.69217 Z"/>
	<path d="M 706.19451,266.84381 724.53423,266.84381 724.53423,328.60001 742.12539,328.60001 742.12539,266.84381 760.46511,266.84381 760.46511,251.40476 706.19451,251.40476 706.19451,266.84381 Z"/>
	<path d="M 831.12349,251.40476 813.53233,251.40476 813.53233,296.03765 C 813.53233,308.95031 809.60239,312.69311 800.99395,312.69311 792.38551,312.69311 788.45557,308.95031 788.45557,296.03765 L 788.45557,251.40476 770.86441,251.40476 770.86441,301.184 C 770.86441,320.27228 781.34425,330.00356 800.99395,330.00356 820.64365,330.00356 831.12349,320.27228 831.12349,301.184 L 831.12349,251.40476 Z"/>
	<path d="M 884.58251,312.69311 C 866.89778,312.69311 859.13147,300.34187 859.13147,289.9556 859.13147,279.6629 866.89778,267.31166 884.58251,267.31166 893.56523,267.31166 899.74085,272.08373 899.74085,272.08373 L 907.22645,257.11253 C 907.22645,257.11253 898.61801,250.00121 881.86898,250.00121 859.9736,250.00121 840.04319,267.96665 840.04319,290.14274 840.04319,312.22526 860.06717,330.00356 881.86898,330.00356 898.61801,330.00356 907.22645,322.89224 907.22645,322.89224 L 899.74085,307.92104 C 899.74085,307.92104 893.56523,312.69311 884.58251,312.69311 Z"/>
	<path d="M 989.31938,328.60001 953.3885,287.99063 984.45374,251.40476 963.11978,251.40476 936.63947,282.93785 936.63947,251.40476 919.04831,251.40476 919.04831,328.60001 936.63947,328.60001 936.63947,295.85051 965.08475,328.60001 989.31938,328.60001 Z"/>
	<path d="M 1041.8631,251.40476 997.69809,251.40476 997.69809,328.60001 1041.8631,328.60001 1041.8631,313.16096 1015.2893,313.16096 1015.2893,297.62834 1040.7403,297.62834 1040.7403,282.18929 1015.2893,282.18929 1015.2893,266.84381 1041.8631,266.84381 1041.8631,251.40476 Z"/>
	<path d="M 1052.1104,266.84381 1070.4501,266.84381 1070.4501,328.60001 1088.0413,328.60001 1088.0413,266.84381 1106.381,266.84381 1106.381,251.40476 1052.1104,251.40476 1052.1104,266.84381 Z"/>
	<path d="M 356.17576,431.05151 323.0508,431.05151 323.0508,488.95001 356.17576,488.95001 356.17576,477.37031 336.24464,477.37031 336.24464,465.72043 355.3336,465.72043 355.3336,454.14073 336.24464,454.14073 336.24464,442.63121 356.17576,442.63121 356.17576,431.05151 Z"/>
	<path d="M 368.76068,431.05151 368.76068,488.95001 385.5337,488.95001 C 401.46456,488.95001 414.72858,476.87905 414.72858,459.96567 414.72858,443.12247 401.39438,431.05151 385.5337,431.05151 L 368.76068,431.05151 Z M 381.95452,477.15977 381.95452,442.84175 383.98974,442.84175 C 393.81494,442.84175 400.48204,450.35101 400.48204,460.03585 400.41186,469.72069 393.74476,477.15977 383.98974,477.15977 L 381.95452,477.15977 Z"/>
	<path d="M 477.92754,456.52685 451.18896,456.52685 451.18896,466.70295 464.52316,466.70295 C 464.52316,473.79113 458.27714,477.86157 451.96094,477.86157 443.82006,477.86157 437.22314,469.86105 437.22314,460.03585 437.22314,450.00011 443.82006,441.92941 451.96094,441.92941 457.08408,441.92941 461.50542,443.96463 464.87406,449.36849 L 473.5062,439.89419 C 468.45324,433.78853 461.36506,429.99881 451.18896,429.99881 434.9072,429.99881 422.9766,443.40319 422.9766,460.03585 422.9766,476.59833 435.609,490.00271 451.18896,490.00271 462.55812,490.00271 474.76944,483.75669 477.92754,469.08907 L 477.92754,456.52685 Z"/>
	<path d="M 518.09649,431.05151 505.88517,431.05151 482.51523,488.95001 496.69159,488.95001 500.97257,477.37031 523.00909,477.37031 527.29007,488.95001 541.46643,488.95001 518.09649,431.05151 Z M 518.51757,465.79061 505.46409,465.79061 511.92065,448.94741 512.06101,448.94741 518.51757,465.79061 Z"/>
	<path d="M 548.65627,431.05151 548.65627,488.95001 561.85011,488.95001 561.85011,466.07133 579.53547,488.95001 596.30849,488.95001 576.37737,465.01863 C 583.46555,462.77287 588.23779,456.94793 588.23779,448.24561 588.23779,436.87645 580.09691,431.05151 569.35937,431.05151 L 548.65627,431.05151 Z M 561.85011,456.73739 561.85011,441.57851 563.39407,441.57851 C 568.37685,441.57851 574.34215,441.92941 574.34215,449.15795 574.34215,456.38649 568.37685,456.73739 563.39407,456.73739 L 561.85011,456.73739 Z"/>
	<path d="M 657.55634,431.05151 645.34502,431.05151 621.97508,488.95001 636.15144,488.95001 640.43242,477.37031 662.46894,477.37031 666.74992,488.95001 680.92628,488.95001 657.55634,431.05151 Z M 657.97742,465.79061 644.92394,465.79061 651.3805,448.94741 651.52086,448.94741 657.97742,465.79061 Z"/>
	<path d="M 701.30994,431.05151 688.1161,431.05151 688.1161,488.95001 721.24106,488.95001 721.24106,477.37031 701.30994,477.37031 701.30994,431.05151 Z"/>
	<path d="M 745.92329,431.05151 732.72945,431.05151 732.72945,488.95001 765.85441,488.95001 765.85441,477.37031 745.92329,477.37031 745.92329,431.05151 Z"/>
	<path d="M 807.84474,431.05151 795.63342,431.05151 772.26348,488.95001 786.43984,488.95001 790.72082,477.37031 812.75734,477.37031 817.03832,488.95001 831.21468,488.95001 807.84474,431.05151 Z M 808.26582,465.79061 795.21234,465.79061 801.6689,448.94741 801.80926,448.94741 808.26582,465.79061 Z"/>
	<path d="M 851.59834,453.01785 851.7387,453.01785 874.75774,488.95001 887.95158,488.95001 887.95158,431.05151 874.75774,431.05151 874.75774,466.98367 874.61738,466.98367 851.59834,431.05151 838.4045,431.05151 838.4045,488.95001 851.59834,488.95001 851.59834,453.01785 Z"/>
	<path d="M 925.57509,431.05151 925.57509,488.95001 938.76893,488.95001 938.76893,467.47493 946.69927,467.47493 C 957.99825,467.47493 966.49003,460.80783 966.49003,448.87723 966.49003,436.87645 957.99825,431.05151 946.69927,431.05151 L 925.57509,431.05151 Z M 938.76893,456.94793 938.76893,441.57851 942.48847,441.57851 C 947.68179,441.57851 952.59439,443.33301 952.59439,449.29831 952.59439,455.19343 947.68179,456.94793 942.48847,456.94793 L 938.76893,456.94793 Z"/>
	<path d="M 974.7194,459.96567 C 974.7194,476.87905 986.79036,490.00271 1003.9143,490.00271 1020.5469,490.00271 1033.039,476.87905 1033.039,459.96567 1033.039,443.05229 1019.9855,429.99881 1003.9143,429.99881 987.98342,429.99881 974.7194,443.05229 974.7194,459.96567 Z M 988.96594,459.96567 C 988.96594,451.33353 993.73818,442.70139 1003.9143,442.70139 1014.1606,442.70139 1018.7924,451.33353 1018.7924,459.96567 1018.7924,468.59781 1014.4413,477.22995 1003.9143,477.22995 993.10656,477.22995 988.96594,468.59781 988.96594,459.96567 Z"/>
	<path d="M 1076.9856,431.05151 1043.8607,431.05151 1043.8607,488.95001 1076.9856,488.95001 1076.9856,477.37031 1057.0545,477.37031 1057.0545,465.72043 1076.1435,465.72043 1076.1435,454.14073 1057.0545,454.14073 1057.0545,442.63121 1076.9856,442.63121 1076.9856,431.05151 Z"/>
</svg>
