<?xml version="1.0" encoding="utf-8"?>
<svg xmlns="http://www.w3.org/2000/svg" xmlns:svg="http://www.w3.org/2000/svg" version="1.1" viewBox="0 0 1400 540">
	<title>The titlepage for the Standard Ebooks edition of The Narrative of Gordon Arthur Pym of Nantucket, by Edgar Allan Poe</title>
	<g aria-label="THE NARRATIVE OF">
		<path d="m 200.71198,68.245613 h 18.33918 V 130 h 17.59065 V 68.245613 h 18.33918 V 52.807016 h -54.26901 z"/>
		<path d="m 283.90643,99.029239 h 24.88888 V 130 h 17.59065 V 52.807016 H 308.79531 V 83.590642 H 283.90643 V 52.807016 H 266.31578 V 130 h 17.59065 z"/>
		<path d="M 386.75146,52.807016 H 342.58772 V 130 h 44.16374 v -15.4386 h -26.5731 V 99.029239 h 25.45029 V 83.590642 H 360.17836 V 68.245613 h 26.5731 z"/>
		<path d="m 450.03947,82.093566 h 0.18714 L 480.91667,130 h 17.59064 V 52.807016 h -17.59064 v 47.906434 h -0.18714 L 450.03947,52.807016 H 432.44883 V 130 h 17.59064 z"/>
		<path d="m 553.95614,52.807016 h -16.2807 L 506.51754,130 h 18.90058 l 5.70761,-15.4386 h 29.38011 L 566.21345,130 h 18.90058 z m 0.5614,46.31579 h -17.40351 l 8.60819,-22.45614 h 0.18713 z"/>
		<path d="M 593.03362,52.807016 V 130 h 17.59065 V 99.497075 L 634.20321,130 h 22.36258 l -26.5731,-31.906433 c 9.45029,-2.994152 15.81286,-10.760234 15.81286,-22.362574 0,-15.157895 -10.8538,-22.923977 -25.16959,-22.923977 z m 17.59065,34.245615 V 66.842104 h 2.05848 c 6.64327,0 14.59649,0.467836 14.59649,10.105263 0,9.637428 -7.95322,10.105264 -14.59649,10.105264 z"/>
		<path d="M 665.10235,52.807016 V 130 h 17.59064 V 99.497075 L 706.27194,130 h 22.36257 l -26.5731,-31.906433 c 9.4503,-2.994152 15.81287,-10.760234 15.81287,-22.362574 0,-15.157895 -10.8538,-22.923977 -25.16959,-22.923977 z m 17.59064,34.245615 V 66.842104 h 2.05848 c 6.64328,0 14.59649,0.467836 14.59649,10.105263 0,9.637428 -7.95321,10.105264 -14.59649,10.105264 z"/>
		<path d="m 776.37572,52.807016 h -16.2807 L 728.93713,130 h 18.90058 l 5.7076,-15.4386 h 29.38012 L 788.63303,130 h 18.90059 z m 0.56141,46.31579 h -17.40351 l 8.60818,-22.45614 h 0.18714 z"/>
		<path d="m 806.01905,68.245613 h 18.33918 V 130 h 17.59064 V 68.245613 h 18.33918 V 52.807016 h -54.269 z"/>
		<path d="M 889.21347,52.807016 H 871.62283 V 130 h 17.59064 z"/>
		<path d="m 921.59649,130 h 13.84795 L 967.81871,52.807016 H 947.98246 L 928.52047,103.52047 909.05848,52.807016 h -19.83626 z"/>
		<path d="M 1019.902,52.807016 H 975.7383 V 130 h 44.1637 V 114.5614 H 993.32895 V 99.029239 h 25.45025 V 83.590642 H 993.32895 V 68.245613 h 26.57305 z"/>
		<path d="m 1062.1375,91.356724 c 0,22.549706 16.0935,40.046786 38.9239,40.046786 22.1755,0 38.8304,-17.49708 38.8304,-40.046786 0,-22.549708 -17.4035,-39.953217 -38.8304,-39.953217 -21.2397,0 -38.9239,17.403509 -38.9239,39.953217 z m 18.9941,0 c 0,-11.508772 6.3626,-23.017544 19.9298,-23.017544 13.6609,0 19.8363,11.508772 19.8363,23.017544 0,11.508776 -5.8012,23.017546 -19.8363,23.017546 -14.4093,0 -19.9298,-11.50877 -19.9298,-23.017546 z"/>
		<path d="m 1197.2851,52.807016 h -44.6316 V 130 h 17.5907 V 99.029239 h 24.9824 V 83.590642 h -24.9824 V 68.245613 h 27.0409 z"/>
	</g>
	<g aria-label="ARTHUR GORDON PYM">
		<path d="M 145.8823,152.80702 H 129.6016 L 98.443704,230 h 18.900586 l 5.7076,-15.4386 h 29.38012 L 158.13961,230 h 18.90059 z m 0.5614,46.31579 h -17.4035 l 8.60818,-22.45614 h 0.18714 z"/>
		<path d="M 184.95979,152.80702 V 230 h 17.59064 V 199.49708 L 226.12938,230 h 22.36257 l -26.5731,-31.90643 c 9.45029,-2.99416 15.81287,-10.76024 15.81287,-22.36258 0,-15.15789 -10.8538,-22.92397 -25.16959,-22.92397 z m 17.59064,34.24561 V 166.8421 h 2.05848 c 6.64328,0 14.59649,0.46784 14.59649,10.10527 0,9.63742 -7.95321,10.10526 -14.59649,10.10526 z"/>
		<path d="m 248.50803,168.24561 h 18.33918 V 230 h 17.59065 v -61.75439 h 18.33918 v -15.43859 h -54.26901 z"/>
		<path d="m 331.70247,199.02924 h 24.88889 V 230 H 374.182 v -77.19298 h -17.59064 v 30.78362 H 331.70247 V 152.80702 H 314.11183 V 230 h 17.59064 z"/>
		<path d="m 449.70541,152.80702 h -17.59065 v 44.63158 c 0,12.91228 -3.92982,16.65497 -12.53801,16.65497 -8.60819,0 -12.53801,-3.74269 -12.53801,-16.65497 V 152.80702 H 389.4481 v 49.77777 c 0,19.08772 10.47953,28.81872 30.12865,28.81872 19.64912,0 30.12866,-9.731 30.12866,-28.81872 z"/>
		<path d="M 465.01097,152.80702 V 230 h 17.59064 V 199.49708 L 506.18056,230 h 22.36257 l -26.5731,-31.90643 c 9.45029,-2.99416 15.81287,-10.76024 15.81287,-22.36258 0,-15.15789 -10.85381,-22.92397 -25.1696,-22.92397 z m 17.59064,34.24561 V 166.8421 h 2.05848 c 6.64327,0 14.59649,0.46784 14.59649,10.10527 0,9.63742 -7.95322,10.10526 -14.59649,10.10526 z"/>
		<path d="m 637.46564,186.77193 h -35.64912 v 13.56725 h 17.77777 c 0,9.45029 -8.32748,14.87719 -16.74853,14.87719 -10.85381,0 -19.64913,-10.66666 -19.64913,-23.76608 0,-13.38012 8.79532,-24.14035 19.64913,-24.14035 6.83041,0 12.72514,2.71345 17.21637,9.91813 l 11.50877,-12.63158 c -6.73684,-8.14035 -16.18713,-13.19298 -29.75438,-13.19298 -21.70761,0 -37.61404,17.87134 -37.61404,40.04678 0,22.08187 16.84211,39.95322 37.61404,39.95322 15.15789,0 31.43859,-8.32749 35.64912,-27.88304 z"/>
		<path d="m 646.68786,191.35672 c 0,22.54971 16.09357,40.04679 38.92398,40.04679 22.17544,0 38.83041,-17.49708 38.83041,-40.04679 0,-22.5497 -17.40351,-39.95321 -38.83041,-39.95321 -21.23977,0 -38.92398,17.40351 -38.92398,39.95321 z m 18.99415,0 c 0,-11.50877 6.36258,-23.01754 19.92983,-23.01754 13.66082,0 19.83626,11.50877 19.83626,23.01754 0,11.50878 -5.80117,23.01755 -19.83626,23.01755 -14.40936,0 -19.92983,-11.50877 -19.92983,-23.01755 z"/>
		<path d="M 737.20393,152.80702 V 230 h 17.59064 V 199.49708 L 778.37352,230 h 22.36257 l -26.5731,-31.90643 c 9.4503,-2.99416 15.81287,-10.76024 15.81287,-22.36258 0,-15.15789 -10.8538,-22.92397 -25.16959,-22.92397 z m 17.59064,34.24561 V 166.8421 h 2.05848 c 6.64328,0 14.59649,0.46784 14.59649,10.10527 0,9.63742 -7.95321,10.10526 -14.59649,10.10526 z"/>
		<path d="M 809.27265,152.80702 V 230 h 22.36258 c 21.23976,0 38.92397,-16.09357 38.92397,-38.64328 0,-22.45614 -17.77777,-38.5497 -38.92397,-38.5497 z m 17.59065,61.47368 v -45.75439 h 2.71345 c 13.09941,0 21.9883,10.0117 21.9883,22.92398 -0.0936,12.91228 -8.98245,22.83041 -21.9883,22.83041 z"/>
		<path d="m 879.88964,191.35672 c 0,22.54971 16.09357,40.04679 38.92398,40.04679 22.17544,0 38.83041,-17.49708 38.83041,-40.04679 0,-22.5497 -17.40351,-39.95321 -38.83041,-39.95321 -21.23976,0 -38.92398,17.40351 -38.92398,39.95321 z m 18.99416,0 c 0,-11.50877 6.36257,-23.01754 19.92982,-23.01754 13.66082,0 19.83626,11.50877 19.83626,23.01754 0,11.50878 -5.80117,23.01755 -19.83626,23.01755 -14.40936,0 -19.92982,-11.50877 -19.92982,-23.01755 z"/>
		<path d="m 987.99635,182.09357 h 0.18714 L 1018.8735,230 h 17.5907 v -77.19298 h -17.5907 v 47.90643 h -0.1871 L 987.99635,152.80702 H 970.40571 V 230 h 17.59064 z"/>
		<path d="M 1083.2932,152.80702 V 230 h 17.5906 v -28.63158 h 10.5731 c 15.0643,0 26.386,-8.88889 26.386,-24.79532 0,-16 -11.3217,-23.76608 -26.386,-23.76608 z m 17.5906,34.52631 V 166.8421 h 4.9591 c 6.9239,0 13.4737,2.33919 13.4737,10.2924 0,7.85965 -6.5498,10.19883 -13.4737,10.19883 z"/>
		<path d="m 1133.7829,152.80702 28.4445,42.5731 V 230 h 17.5906 v -34.61988 l 28.4445,-42.5731 h -21.1462 l -16.0936,24.70175 -16.0936,-24.70175 z"/>
		<path d="m 1279.913,230 h 17.5906 l -6.924,-77.19298 h -18.7134 l -17.1228,44.53801 -17.1228,-44.53801 h -18.7135 L 1211.9831,230 h 17.5907 l 3.6491,-45.75439 h 0.4679 l 15.8128,45.28655 h 10.4795 l 15.8129,-45.28655 h 0.4679 z"/>
	</g>
	<g aria-label="OF NANTUCKET">
		<path d="m 294.35233,291.35672 c 0,22.54971 16.09357,40.04679 38.92398,40.04679 22.17544,0 38.83041,-17.49708 38.83041,-40.04679 0,-22.5497 -17.40351,-39.95321 -38.83041,-39.95321 -21.23977,0 -38.92398,17.40351 -38.92398,39.95321 z m 18.99415,0 c 0,-11.50877 6.36258,-23.01754 19.92983,-23.01754 13.66082,0 19.83626,11.50877 19.83626,23.01754 0,11.50878 -5.80117,23.01755 -19.83626,23.01755 -14.40936,0 -19.92983,-11.50877 -19.92983,-23.01755 z"/>
		<path d="M 429.49999,252.80702 H 384.86841 V 330 h 17.59065 v -30.97076 h 24.98245 v -15.4386 h -24.98245 v -15.34503 h 27.04093 z"/>
		<path d="m 491.04094,282.09357 h 0.18713 L 521.91813,330 h 17.59064 v -77.19298 h -17.59064 v 47.90643 h -0.18714 L 491.04094,252.80702 H 473.45029 V 330 h 17.59065 z"/>
		<path d="M 594.9576,252.80702 H 578.6769 L 547.519,330 h 18.90059 l 5.7076,-15.4386 h 29.38012 L 607.21491,330 h 18.90058 z m 0.5614,46.31579 h -17.40351 l 8.60819,-22.45614 h 0.18713 z"/>
		<path d="m 651.62573,282.09357 h 0.18713 L 682.50292,330 h 17.59065 v -77.19298 h -17.59065 v 47.90643 h -0.18713 L 651.62573,252.80702 H 634.03509 V 330 h 17.59064 z"/>
		<path d="m 706.90351,268.24561 h 18.33918 V 330 h 17.59064 v -61.75439 h 18.33918 v -15.43859 h -54.269 z"/>
		<path d="m 831.82895,252.80702 h -17.59064 v 44.63158 c 0,12.91228 -3.92983,16.65497 -12.53801,16.65497 -8.60819,0 -12.53801,-3.74269 -12.53801,-16.65497 v -44.63158 h -17.59065 v 49.77777 c 0,19.08772 10.47953,28.81872 30.12866,28.81872 19.64912,0 30.12865,-9.731 30.12865,-28.81872 z"/>
		<path d="m 885.28652,314.09357 c -17.68421,0 -25.45029,-12.35088 -25.45029,-22.73685 0,-10.29239 7.76608,-22.64327 25.45029,-22.64327 8.98246,0 15.1579,4.77193 15.1579,4.77193 l 7.48538,-14.97076 c 0,0 -8.60819,-7.11111 -25.35673,-7.11111 -21.89473,0 -41.82456,17.96491 -41.82456,40.14035 0,22.08187 20.02339,39.85965 41.82456,39.85965 16.74854,0 25.35673,-7.11111 25.35673,-7.11111 l -7.48538,-14.97076 c 0,0 -6.17544,4.77193 -15.1579,4.77193 z"/>
		<path d="m 990.02046,330 -35.92982,-40.60819 31.06432,-36.58479 H 963.82163 L 937.3421,284.33918 V 252.80702 H 919.75145 V 330 H 937.3421 V 297.25146 L 965.78654,330 Z"/>
		<path d="M 1042.5628,252.80702 H 998.3991 V 330 h 44.1637 v -15.4386 h -26.5731 v -15.53216 h 25.4503 v -15.4386 h -25.4503 v -15.34503 h 26.5731 z"/>
		<path d="m 1052.81,268.24561 h 18.3392 V 330 h 17.5906 v -61.75439 h 18.3392 v -15.43859 h -54.269 z"/>
	</g>
	<g aria-label="EDGAR ALLAN POE">
		<path d="M 356.59595,432.10526 H 323.47314 V 490 h 33.12281 v -11.57895 h -19.92983 v -11.64912 h 19.08772 v -11.57895 h -19.08772 v -11.50877 h 19.92983 z"/>
		<path d="M 369.18038,432.10526 V 490 h 16.77193 c 15.92982,0 29.19298,-12.07018 29.19298,-28.98246 0,-16.8421 -13.33333,-28.91228 -29.19298,-28.91228 z m 13.19298,46.10527 v -34.31579 h 2.03509 c 9.82456,0 16.49122,7.50877 16.49122,17.19298 -0.0702,9.68421 -6.73684,17.12281 -16.49122,17.12281 z"/>
		<path d="m 478.34046,457.57895 h -26.73684 v 10.17544 h 13.33334 c 0,7.08772 -6.24562,11.15789 -12.56141,11.15789 -8.14035,0 -14.73684,-8 -14.73684,-17.82456 0,-10.03509 6.59649,-18.10526 14.73684,-18.10526 5.12281,0 9.54386,2.03508 12.91228,7.43859 l 8.63158,-9.47368 c -5.05263,-6.10526 -12.14035,-9.89474 -22.31579,-9.89474 -16.2807,0 -28.21052,13.40351 -28.21052,30.03509 0,16.5614 12.63158,29.96491 28.21052,29.96491 11.36842,0 23.57895,-6.24561 26.73684,-20.91228 z"/>
		<path d="M 518.50713,432.10526 H 506.2966 L 482.92818,490 h 14.17544 l 4.2807,-11.57895 h 22.03509 L 527.70011,490 h 14.17544 z m 0.42105,34.73685 H 505.87555 L 512.33169,450 h 0.14035 z"/>
		<path d="M 549.06524,432.10526 V 490 h 13.19298 V 467.12281 L 579.94243,490 h 16.77193 l -19.92982,-23.92982 c 7.08772,-2.24562 11.85965,-8.07018 11.85965,-16.77193 0,-11.36842 -8.14035,-17.19299 -18.87719,-17.19299 z m 13.19298,25.68421 v -15.15789 h 1.54386 c 4.98246,0 10.94737,0.35088 10.94737,7.57895 0,7.22807 -5.96491,7.57894 -10.94737,7.57894 z"/>
		<path d="M 657.95889,432.10526 H 645.74837 L 622.37995,490 h 14.17543 l 4.28071,-11.57895 h 22.03508 L 667.15187,490 h 14.17544 z m 0.42106,34.73685 H 645.32731 L 651.78345,450 h 0.14035 z"/>
		<path d="M 701.70998,432.10526 H 688.51699 V 490 h 33.12281 v -11.57895 h -19.92982 z"/>
		<path d="M 746.32072,432.10526 H 733.12774 V 490 h 33.12281 v -11.57895 h -19.92983 z"/>
		<path d="M 808.23849,432.10526 H 796.02797 L 772.65955,490 h 14.17544 l 4.2807,-11.57895 h 22.03509 L 817.43148,490 h 14.17544 z m 0.42106,34.73685 H 795.60692 L 802.06306,450 h 0.14035 z"/>
		<path d="m 851.98961,454.07018 h 0.14035 L 875.1475,490 h 13.19298 V 432.10526 H 875.1475 v 35.92983 h -0.14035 L 851.98961,432.10526 H 838.79663 V 490 h 13.19298 z"/>
		<path d="M 925.96215,432.10526 V 490 h 13.19299 v -21.47368 h 7.92982 c 11.29825,0 19.78947,-6.66667 19.78947,-18.5965 0,-11.99999 -8.49122,-17.82456 -19.78947,-17.82456 z M 939.15514,458 v -15.36842 h 3.71929 c 5.19299,0 10.10527,1.75439 10.10527,7.7193 0,5.89473 -4.91228,7.64912 -10.10527,7.64912 z"/>
		<path d="m 975.10364,461.01754 c 0,16.91228 12.07017,30.03509 29.19296,30.03509 16.6316,0 29.1228,-13.12281 29.1228,-30.03509 0,-16.91228 -13.0526,-29.96491 -29.1228,-29.96491 -15.9298,0 -29.19296,13.05263 -29.19296,29.96491 z m 14.24561,0 c 0,-8.63157 4.77193,-17.26315 14.94735,-17.26315 10.2456,0 14.8772,8.63158 14.8772,17.26315 0,8.63158 -4.3509,17.26316 -14.8772,17.26316 -10.807,0 -14.94735,-8.63158 -14.94735,-17.26316 z"/>
		<path d="m 1077.3635,432.10526 h -33.1228 V 490 h 33.1228 v -11.57895 h -19.9299 v -11.64912 h 19.0878 v -11.57895 h -19.0878 v -11.50877 h 19.9299 z"/>
	</g>
</svg>
